<svg width="1248" height="590" viewBox="0 0 1248 590" fill="none" xmlns="http://www.w3.org/2000/svg">
<g opacity="0.4">
<path d="M1244.34 589.232H1248V585.572H1244.34V589.232Z" fill="#21262D"/>
<path d="M1171.14 589.232H1174.8V585.572H1171.14V589.232Z" fill="#21262D"/>
<path d="M1097.95 589.232H1101.61V585.572H1097.95V589.232Z" fill="#21262D"/>
<path d="M1024.75 589.232H1028.41V585.572H1024.75V589.232Z" fill="#21262D"/>
<path d="M951.555 589.232H955.215V585.572H951.555V589.232Z" fill="#21262D"/>
<path d="M878.359 589.232H882.019V585.572H878.359V589.232Z" fill="#21262D"/>
<path d="M805.16 589.232H808.82V585.572H805.16V589.232Z" fill="#21262D"/>
<path d="M731.965 589.232H735.625V585.572H731.965V589.232Z" fill="#21262D"/>
<path d="M658.77 589.232H662.43V585.572H658.77V589.232Z" fill="#21262D"/>
<path d="M585.574 589.232H589.234V585.572H585.574V589.232Z" fill="#21262D"/>
<path d="M512.375 589.232H516.035V585.572H512.375V589.232Z" fill="#21262D"/>
<path d="M439.18 589.232H442.84V585.572H439.18V589.232Z" fill="#21262D"/>
<path d="M365.98 589.232H369.641V585.572H365.98V589.232Z" fill="#21262D"/>
<path d="M292.785 589.232H296.445V585.572H292.785V589.232Z" fill="#21262D"/>
<path d="M219.59 589.232H223.25V585.572H219.59V589.232Z" fill="#21262D"/>
<path d="M146.395 589.232H150.055V585.572H146.395V589.232Z" fill="#21262D"/>
<path d="M73.1954 589.232H76.8553V585.572H73.1954V589.232Z" fill="#21262D"/>
<path d="M4.51132e-05 589.232H3.65984V585.572H4.47932e-05L4.51132e-05 589.232Z" fill="#21262D"/>
<path d="M1244.34 516.037H1248V512.377H1244.34V516.037Z" fill="#21262D"/>
<path d="M1171.14 516.037H1174.8V512.377H1171.14V516.037Z" fill="#21262D"/>
<path d="M1097.95 516.037H1101.61V512.377H1097.95V516.037Z" fill="#21262D"/>
<path d="M1024.75 516.037H1028.41V512.377H1024.75V516.037Z" fill="#21262D"/>
<path d="M951.555 516.037H955.215V512.377H951.555V516.037Z" fill="#21262D"/>
<path d="M878.359 516.037H882.019V512.377H878.359V516.037Z" fill="#21262D"/>
<path d="M805.16 516.037H808.82V512.377H805.16V516.037Z" fill="#21262D"/>
<path d="M731.965 516.037H735.625V512.377H731.965V516.037Z" fill="#21262D"/>
<path d="M658.77 516.037H662.43V512.377H658.77V516.037Z" fill="#21262D"/>
<path d="M585.574 516.037H589.234V512.377H585.574V516.037Z" fill="#21262D"/>
<path d="M512.375 516.037H516.035V512.377H512.375V516.037Z" fill="#21262D"/>
<path d="M439.18 516.037H442.84V512.377H439.18V516.037Z" fill="#21262D"/>
<path d="M365.98 516.037H369.641V512.377H365.98V516.037Z" fill="#21262D"/>
<path d="M292.785 516.037H296.445V512.377H292.785V516.037Z" fill="#21262D"/>
<path d="M219.59 516.037H223.25V512.377H219.59V516.037Z" fill="#21262D"/>
<path d="M146.395 516.037H150.055V512.377H146.395V516.037Z" fill="#21262D"/>
<path d="M73.1954 516.037H76.8553V512.377H73.1954V516.037Z" fill="#21262D"/>
<path d="M4.54331e-05 516.037H3.65983V512.377H4.51132e-05L4.54331e-05 516.037Z" fill="#21262D"/>
<path d="M1244.34 442.84H1248V439.18H1244.34V442.84Z" fill="#21262D"/>
<path d="M1171.14 442.84H1174.8V439.18H1171.14V442.84Z" fill="#21262D"/>
<path d="M1097.95 442.84H1101.61V439.18H1097.95V442.84Z" fill="#21262D"/>
<path d="M1024.75 442.84H1028.41V439.18H1024.75V442.84Z" fill="#21262D"/>
<path d="M951.555 442.84H955.215V439.18H951.555V442.84Z" fill="#21262D"/>
<path d="M878.359 442.84H882.019V439.18H878.359V442.84Z" fill="#21262D"/>
<path d="M805.16 442.84H808.82V439.18H805.16V442.84Z" fill="#21262D"/>
<path d="M731.965 442.84H735.625V439.18H731.965V442.84Z" fill="#21262D"/>
<path d="M658.77 442.84H662.43V439.18H658.77V442.84Z" fill="#21262D"/>
<path d="M585.574 442.84H589.234V439.18H585.574V442.84Z" fill="#21262D"/>
<path d="M512.375 442.84H516.035V439.18H512.375V442.84Z" fill="#21262D"/>
<path d="M439.18 442.84H442.84V439.18H439.18V442.84Z" fill="#21262D"/>
<path d="M365.98 442.84H369.641V439.18H365.98V442.84Z" fill="#21262D"/>
<path d="M292.785 442.84H296.445V439.18H292.785V442.84Z" fill="#21262D"/>
<path d="M219.59 442.84H223.25V439.18H219.59V442.84Z" fill="#21262D"/>
<path d="M146.395 442.84H150.055V439.18H146.395V442.84Z" fill="#21262D"/>
<path d="M73.1954 442.84H76.8553V439.18H73.1954V442.84Z" fill="#21262D"/>
<path d="M4.54331e-05 442.84H3.65984V439.18H4.51132e-05L4.54331e-05 442.84Z" fill="#21262D"/>
<path d="M1244.34 369.644H1248V365.984H1244.34V369.644Z" fill="#21262D"/>
<path d="M1171.14 369.644H1174.8V365.984H1171.14V369.644Z" fill="#21262D"/>
<path d="M1097.95 369.644H1101.61V365.984H1097.95V369.644Z" fill="#21262D"/>
<path d="M1024.75 369.644H1028.41V365.984H1024.75V369.644Z" fill="#21262D"/>
<path d="M951.555 369.644H955.215V365.984H951.555V369.644Z" fill="#21262D"/>
<path d="M878.359 369.644H882.019V365.984H878.359V369.644Z" fill="#21262D"/>
<path d="M805.16 369.644H808.82V365.984H805.16V369.644Z" fill="#21262D"/>
<path d="M731.965 369.644H735.625V365.984H731.965V369.644Z" fill="#21262D"/>
<path d="M658.77 369.644H662.43V365.984H658.77V369.644Z" fill="#21262D"/>
<path d="M585.574 369.644H589.234V365.984H585.574V369.644Z" fill="#21262D"/>
<path d="M512.375 369.644H516.035V365.984H512.375V369.644Z" fill="#21262D"/>
<path d="M439.18 369.644H442.84V365.984H439.18V369.644Z" fill="#21262D"/>
<path d="M365.98 369.644H369.641V365.984H365.98V369.644Z" fill="#21262D"/>
<path d="M292.785 369.644H296.445V365.984H292.785V369.644Z" fill="#21262D"/>
<path d="M219.59 369.644H223.25V365.984H219.59V369.644Z" fill="#21262D"/>
<path d="M146.395 369.644H150.055V365.984H146.395V369.644Z" fill="#21262D"/>
<path d="M73.1954 369.644H76.8553V365.984H73.1954V369.644Z" fill="#21262D"/>
<path d="M4.54332e-05 369.644H3.65983V365.984H4.51132e-05L4.54332e-05 369.644Z" fill="#21262D"/>
<path d="M1244.34 296.447H1248V292.787H1244.34V296.447Z" fill="#21262D"/>
<path d="M1171.14 296.447H1174.8V292.787H1171.14V296.447Z" fill="#21262D"/>
<path d="M1097.95 296.447H1101.61V292.787H1097.95V296.447Z" fill="#21262D"/>
<path d="M1024.75 296.447H1028.41V292.787H1024.75V296.447Z" fill="#21262D"/>
<path d="M951.555 296.447H955.215V292.787H951.555V296.447Z" fill="#21262D"/>
<path d="M878.359 296.447H882.019V292.787H878.359V296.447Z" fill="#21262D"/>
<path d="M805.16 296.447H808.82V292.787H805.16V296.447Z" fill="#21262D"/>
<path d="M731.965 296.447H735.625V292.787H731.965V296.447Z" fill="#21262D"/>
<path d="M658.77 296.447H662.43V292.787H658.77V296.447Z" fill="#21262D"/>
<path d="M585.574 296.447H589.234V292.787H585.574V296.447Z" fill="#21262D"/>
<path d="M512.375 296.447H516.035V292.787H512.375V296.447Z" fill="#21262D"/>
<path d="M439.18 296.447H442.84V292.787H439.18V296.447Z" fill="#21262D"/>
<path d="M365.98 296.447H369.641V292.787H365.98V296.447Z" fill="#21262D"/>
<path d="M292.785 296.447H296.445V292.787H292.785V296.447Z" fill="#21262D"/>
<path d="M219.59 296.447H223.25V292.787H219.59V296.447Z" fill="#21262D"/>
<path d="M146.395 296.447H150.055V292.787H146.395V296.447Z" fill="#21262D"/>
<path d="M73.1954 296.447H76.8553V292.787H73.1954V296.447Z" fill="#21262D"/>
<path d="M4.54331e-05 296.447H3.65983V292.787H4.51132e-05L4.54331e-05 296.447Z" fill="#21262D"/>
<path d="M1244.34 223.25H1248V219.59H1244.34V223.25Z" fill="#21262D"/>
<path d="M1171.14 223.25H1174.8V219.59H1171.14V223.25Z" fill="#21262D"/>
<path d="M1097.95 223.25H1101.61V219.59H1097.95V223.25Z" fill="#21262D"/>
<path d="M1024.75 223.25H1028.41V219.59H1024.75V223.25Z" fill="#21262D"/>
<path d="M951.555 223.25H955.215V219.59H951.555V223.25Z" fill="#21262D"/>
<path d="M878.359 223.25H882.019V219.59H878.359V223.25Z" fill="#21262D"/>
<path d="M805.16 223.25H808.82V219.59H805.16V223.25Z" fill="#21262D"/>
<path d="M731.965 223.25H735.625V219.59H731.965V223.25Z" fill="#21262D"/>
<path d="M658.77 223.25H662.43V219.59H658.77V223.25Z" fill="#21262D"/>
<path d="M585.574 223.25H589.234V219.59H585.574V223.25Z" fill="#21262D"/>
<path d="M512.375 223.25H516.035V219.59H512.375V223.25Z" fill="#21262D"/>
<path d="M439.18 223.25H442.84V219.59H439.18V223.25Z" fill="#21262D"/>
<path d="M365.98 223.25H369.641V219.59H365.98V223.25Z" fill="#21262D"/>
<path d="M292.785 223.25H296.445V219.59H292.785V223.25Z" fill="#21262D"/>
<path d="M219.59 223.25H223.25V219.59H219.59V223.25Z" fill="#21262D"/>
<path d="M146.395 223.25H150.055V219.59H146.395V223.25Z" fill="#21262D"/>
<path d="M73.1954 223.25H76.8553V219.59H73.1954V223.25Z" fill="#21262D"/>
<path d="M4.54331e-05 223.25H3.65984V219.59H4.51132e-05L4.54331e-05 223.25Z" fill="#21262D"/>
<path d="M1244.34 150.053H1248V146.393H1244.34V150.053Z" fill="#21262D"/>
<path d="M1171.14 150.053H1174.8V146.393H1171.14V150.053Z" fill="#21262D"/>
<path d="M1097.95 150.053H1101.61V146.393H1097.95V150.053Z" fill="#21262D"/>
<path d="M1024.75 150.053H1028.41V146.393H1024.75V150.053Z" fill="#21262D"/>
<path d="M951.555 150.053H955.215V146.393H951.555V150.053Z" fill="#21262D"/>
<path d="M878.359 150.053H882.019V146.393H878.359V150.053Z" fill="#21262D"/>
<path d="M805.16 150.053H808.82V146.393H805.16V150.053Z" fill="#21262D"/>
<path d="M731.965 150.053H735.625V146.393H731.965V150.053Z" fill="#21262D"/>
<path d="M658.77 150.053H662.43V146.393H658.77V150.053Z" fill="#21262D"/>
<path d="M585.574 150.053H589.234V146.393H585.574V150.053Z" fill="#21262D"/>
<path d="M512.375 150.053H516.035V146.393H512.375V150.053Z" fill="#21262D"/>
<path d="M439.18 150.053H442.84V146.393H439.18V150.053Z" fill="#21262D"/>
<path d="M365.98 150.053H369.641V146.393H365.98V150.053Z" fill="#21262D"/>
<path d="M292.785 150.053H296.445V146.393H292.785V150.053Z" fill="#21262D"/>
<path d="M219.59 150.053H223.25V146.393H219.59V150.053Z" fill="#21262D"/>
<path d="M146.395 150.053H150.055V146.393H146.395V150.053Z" fill="#21262D"/>
<path d="M73.1954 150.053H76.8553V146.393H73.1954V150.053Z" fill="#21262D"/>
<path d="M4.54332e-05 150.053H3.65983V146.393H4.51132e-05L4.54332e-05 150.053Z" fill="#21262D"/>
<path d="M1244.34 76.857H1248V73.1972H1244.34V76.857Z" fill="#21262D"/>
<path d="M1171.14 76.8571H1174.8V73.1973H1171.14V76.8571Z" fill="#21262D"/>
<path d="M1097.95 76.8571H1101.61V73.1973H1097.95V76.8571Z" fill="#21262D"/>
<path d="M1024.75 76.8571H1028.41V73.1972H1024.75V76.8571Z" fill="#21262D"/>
<path d="M951.555 76.8572H955.215V73.1973H951.555V76.8572Z" fill="#21262D"/>
<path d="M878.359 76.8572H882.019V73.1973H878.359V76.8572Z" fill="#21262D"/>
<path d="M805.16 76.8572H808.82V73.1973H805.16V76.8572Z" fill="#21262D"/>
<path d="M731.965 76.8571H735.625V73.1972H731.965V76.8571Z" fill="#21262D"/>
<path d="M658.77 76.8572H662.43V73.1973H658.77V76.8572Z" fill="#21262D"/>
<path d="M585.574 76.8572H589.234V73.1973H585.574V76.8572Z" fill="#21262D"/>
<path d="M512.375 76.8571H516.035V73.1972H512.375V76.8571Z" fill="#21262D"/>
<path d="M439.18 76.8571H442.84V73.1973H439.18V76.8571Z" fill="#21262D"/>
<path d="M365.98 76.8571H369.641V73.1973H365.98V76.8571Z" fill="#21262D"/>
<path d="M292.785 76.8571H296.445V73.1973H292.785V76.8571Z" fill="#21262D"/>
<path d="M219.59 76.8571H223.25V73.1973H219.59V76.8571Z" fill="#21262D"/>
<path d="M146.395 76.8571H150.055V73.1973H146.395V76.8571Z" fill="#21262D"/>
<path d="M73.1954 76.8571H76.8553V73.1973H73.1954V76.8571Z" fill="#21262D"/>
<path d="M3.19898e-07 76.8571H3.6598L3.65979 73.1973H0L3.19898e-07 76.8571Z" fill="#21262D"/>
<path d="M1244.34 3.65979H1248V0H1244.34V3.65979Z" fill="#21262D"/>
<path d="M1171.14 3.65979H1174.8V0H1171.14V3.65979Z" fill="#21262D"/>
<path d="M1097.95 3.65979H1101.61V0L1097.95 1.01328e-06V3.65979Z" fill="#21262D"/>
<path d="M1024.75 3.65979H1028.41V0H1024.75V3.65979Z" fill="#21262D"/>
<path d="M951.555 3.65979H955.215V0H951.555V3.65979Z" fill="#21262D"/>
<path d="M878.359 3.65979H882.019V0H878.359V3.65979Z" fill="#21262D"/>
<path d="M805.16 3.65979H808.82V0H805.16V3.65979Z" fill="#21262D"/>
<path d="M731.965 3.65979H735.625V0L731.965 1.01328e-06V3.65979Z" fill="#21262D"/>
<path d="M658.77 3.65979H662.43V0H658.77V3.65979Z" fill="#21262D"/>
<path d="M585.574 3.65979H589.234V0H585.574V3.65979Z" fill="#21262D"/>
<path d="M512.375 3.65979H516.035V0H512.375V3.65979Z" fill="#21262D"/>
<path d="M439.18 3.65979H442.84V0H439.18V3.65979Z" fill="#21262D"/>
<path d="M365.98 3.65979H369.641V0L365.98 1.01328e-06V3.65979Z" fill="#21262D"/>
<path d="M292.785 3.65979L296.445 3.65978V0H292.785V3.65979Z" fill="#21262D"/>
<path d="M219.59 3.65979H223.25V0H219.59V3.65979Z" fill="#21262D"/>
<path d="M146.395 3.65979H150.055V0H146.395V3.65979Z" fill="#21262D"/>
<path d="M73.1954 3.65979H76.8553V0H73.1954V3.65979Z" fill="#21262D"/>
<path d="M4.54332e-05 3.65979H3.65984V0L4.51132e-05 1.01328e-06L4.54332e-05 3.65979Z" fill="#21262D"/>
<path d="M1244.34 516.035H1248V512.375H1244.34V516.035Z" fill="url(#paint0_linear_10736_27827)"/>
<path d="M1171.14 516.035H1174.8V512.375H1171.14V516.035Z" fill="url(#paint1_linear_10736_27827)"/>
<path d="M1024.75 516.035H1028.41V512.375H1024.75V516.035Z" fill="url(#paint2_linear_10736_27827)"/>
<path d="M805.16 516.035H808.82V512.375H805.16V516.035Z" fill="url(#paint3_linear_10736_27827)"/>
<path d="M731.965 516.035H735.625V512.375H731.965V516.035Z" fill="url(#paint4_linear_10736_27827)"/>
<path d="M658.77 516.035H662.43V512.375H658.77V516.035Z" fill="url(#paint5_linear_10736_27827)"/>
<path d="M585.574 516.035H589.234V512.375H585.574V516.035Z" fill="url(#paint6_linear_10736_27827)"/>
<path d="M439.18 516.035H442.84V512.375H439.18V516.035Z" fill="url(#paint7_linear_10736_27827)"/>
<path d="M365.98 516.035H369.641V512.375H365.98V516.035Z" fill="url(#paint8_linear_10736_27827)"/>
<path d="M292.785 516.035H296.445V512.375H292.785V516.035Z" fill="url(#paint9_linear_10736_27827)"/>
<path d="M4.54332e-05 516.035H3.65984V512.375H4.51132e-05L4.54332e-05 516.035Z" fill="url(#paint10_linear_10736_27827)"/>
<path d="M73.1954 442.838H76.8553V439.178H73.1954V442.838Z" fill="url(#paint11_linear_10736_27827)"/>
<path d="M4.54331e-05 442.839H3.65983L3.65984 439.18H4.51132e-05L4.54331e-05 442.839Z" fill="url(#paint12_linear_10736_27827)"/>
<path d="M1097.95 369.642H1101.61V365.982H1097.95V369.642Z" fill="url(#paint13_linear_10736_27827)"/>
<path d="M73.1954 369.642H76.8553V365.982H73.1954V369.642Z" fill="url(#paint14_linear_10736_27827)"/>
<path d="M1097.95 296.445H1101.61V292.785H1097.95V296.445Z" fill="url(#paint15_linear_10736_27827)"/>
<path d="M4.54332e-05 296.446H3.65983L3.65983 292.787H4.51132e-05L4.54332e-05 296.446Z" fill="url(#paint16_linear_10736_27827)"/>
<path d="M1171.14 223.25H1174.8V219.59H1171.14V223.25Z" fill="url(#paint17_linear_10736_27827)"/>
<path d="M1097.95 223.25H1101.61V219.59H1097.95V223.25Z" fill="url(#paint18_linear_10736_27827)"/>
<path d="M4.54331e-05 223.25H3.65984V219.59H4.51132e-05L4.54331e-05 223.25Z" fill="url(#paint19_linear_10736_27827)"/>
<path d="M1244.34 150.053H1248V146.393H1244.34V150.053Z" fill="url(#paint20_linear_10736_27827)"/>
<path d="M1097.95 150.053H1101.61V146.393H1097.95V150.053Z" fill="url(#paint21_linear_10736_27827)"/>
<path d="M73.1954 150.052H76.8553V146.393H73.1954V150.052Z" fill="url(#paint22_linear_10736_27827)"/>
<path d="M4.54332e-05 150.052H3.65984L3.65983 146.393H4.51132e-05L4.54332e-05 150.052Z" fill="url(#paint23_linear_10736_27827)"/>
<path d="M1097.95 76.8571H1101.61V73.1973H1097.95V76.8571Z" fill="url(#paint24_linear_10736_27827)"/>
<path d="M146.395 76.8571H150.055V73.1973H146.395V76.8571Z" fill="url(#paint25_linear_10736_27827)"/>
<path d="M73.1954 76.8571H76.8553V73.1973H73.1954V76.8571Z" fill="url(#paint26_linear_10736_27827)"/>
<path d="M1244.34 3.65979H1248V0H1244.34V3.65979Z" fill="url(#paint27_linear_10736_27827)"/>
<path d="M4.54332e-05 3.65979H3.65984V0L4.51132e-05 1.01328e-06L4.54332e-05 3.65979Z" fill="url(#paint28_linear_10736_27827)"/>
<path d="M951.793 150.053H955.452V146.393H951.793V150.053Z" fill="url(#paint29_linear_10736_27827)"/>
<path d="M292.785 150.052H296.445V146.393H292.785V150.052Z" fill="url(#paint30_linear_10736_27827)"/>
<path d="M219.59 150.052H223.25V146.393H219.59V150.052Z" fill="url(#paint31_linear_10736_27827)"/>
</g>
<defs>
<linearGradient id="paint0_linear_10736_27827" x1="1248" y1="25873.7" x2="-335933" y2="-55511.5" gradientUnits="userSpaceOnUse">
<stop stop-color="#56D364"/>
<stop offset="1" stop-color="#79C0FF"/>
</linearGradient>
<linearGradient id="paint1_linear_10736_27827" x1="26208" y1="25873.7" x2="-310973" y2="-55511.5" gradientUnits="userSpaceOnUse">
<stop stop-color="#56D364"/>
<stop offset="1" stop-color="#79C0FF"/>
</linearGradient>
<linearGradient id="paint2_linear_10736_27827" x1="76124.6" y1="25873.7" x2="-261057" y2="-55511.5" gradientUnits="userSpaceOnUse">
<stop stop-color="#56D364"/>
<stop offset="1" stop-color="#79C0FF"/>
</linearGradient>
<linearGradient id="paint3_linear_10736_27827" x1="151001" y1="25873.7" x2="-186180" y2="-55511.5" gradientUnits="userSpaceOnUse">
<stop stop-color="#56D364"/>
<stop offset="1" stop-color="#79C0FF"/>
</linearGradient>
<linearGradient id="paint4_linear_10736_27827" x1="175959" y1="25873.7" x2="-161222" y2="-55511.5" gradientUnits="userSpaceOnUse">
<stop stop-color="#56D364"/>
<stop offset="1" stop-color="#79C0FF"/>
</linearGradient>
<linearGradient id="paint5_linear_10736_27827" x1="200918" y1="25873.7" x2="-136263" y2="-55511.5" gradientUnits="userSpaceOnUse">
<stop stop-color="#56D364"/>
<stop offset="1" stop-color="#79C0FF"/>
</linearGradient>
<linearGradient id="paint6_linear_10736_27827" x1="225877" y1="25873.7" x2="-111304" y2="-55511.5" gradientUnits="userSpaceOnUse">
<stop stop-color="#56D364"/>
<stop offset="1" stop-color="#79C0FF"/>
</linearGradient>
<linearGradient id="paint7_linear_10736_27827" x1="275795" y1="25873.7" x2="-61386.4" y2="-55511.5" gradientUnits="userSpaceOnUse">
<stop stop-color="#56D364"/>
<stop offset="1" stop-color="#79C0FF"/>
</linearGradient>
<linearGradient id="paint8_linear_10736_27827" x1="300754" y1="25873.7" x2="-36427.5" y2="-55511.5" gradientUnits="userSpaceOnUse">
<stop stop-color="#56D364"/>
<stop offset="1" stop-color="#79C0FF"/>
</linearGradient>
<linearGradient id="paint9_linear_10736_27827" x1="325712" y1="25873.7" x2="-11468.8" y2="-55511.5" gradientUnits="userSpaceOnUse">
<stop stop-color="#56D364"/>
<stop offset="1" stop-color="#79C0FF"/>
</linearGradient>
<linearGradient id="paint10_linear_10736_27827" x1="425572" y1="25873.7" x2="88373.6" y2="-55520.3" gradientUnits="userSpaceOnUse">
<stop stop-color="#56D364"/>
<stop offset="1" stop-color="#79C0FF"/>
</linearGradient>
<linearGradient id="paint11_linear_10736_27827" x1="400600" y1="37657.9" x2="63410.3" y2="-43731.5" gradientUnits="userSpaceOnUse">
<stop stop-color="#56D364"/>
<stop offset="1" stop-color="#79C0FF"/>
</linearGradient>
<linearGradient id="paint12_linear_10736_27827" x1="425572" y1="37668" x2="88363.6" y2="-43706.4" gradientUnits="userSpaceOnUse">
<stop stop-color="#56D364"/>
<stop offset="1" stop-color="#79C0FF"/>
</linearGradient>
<linearGradient id="paint13_linear_10736_27827" x1="51164.6" y1="49441.9" x2="-286017" y2="-31943.3" gradientUnits="userSpaceOnUse">
<stop stop-color="#56D364"/>
<stop offset="1" stop-color="#79C0FF"/>
</linearGradient>
<linearGradient id="paint14_linear_10736_27827" x1="400600" y1="49441.9" x2="63410.4" y2="-31947.5" gradientUnits="userSpaceOnUse">
<stop stop-color="#56D364"/>
<stop offset="1" stop-color="#79C0FF"/>
</linearGradient>
<linearGradient id="paint15_linear_10736_27827" x1="51164.6" y1="61226.1" x2="-286017" y2="-20159.2" gradientUnits="userSpaceOnUse">
<stop stop-color="#56D364"/>
<stop offset="1" stop-color="#79C0FF"/>
</linearGradient>
<linearGradient id="paint16_linear_10736_27827" x1="425572" y1="61242.7" x2="88363.5" y2="-20131.6" gradientUnits="userSpaceOnUse">
<stop stop-color="#56D364"/>
<stop offset="1" stop-color="#79C0FF"/>
</linearGradient>
<linearGradient id="paint17_linear_10736_27827" x1="26208" y1="73010.1" x2="-310973" y2="-8375.16" gradientUnits="userSpaceOnUse">
<stop stop-color="#56D364"/>
<stop offset="1" stop-color="#79C0FF"/>
</linearGradient>
<linearGradient id="paint18_linear_10736_27827" x1="51164.6" y1="73010.1" x2="-286017" y2="-8375.16" gradientUnits="userSpaceOnUse">
<stop stop-color="#56D364"/>
<stop offset="1" stop-color="#79C0FF"/>
</linearGradient>
<linearGradient id="paint19_linear_10736_27827" x1="425572" y1="73010.1" x2="88373.7" y2="-8384.15" gradientUnits="userSpaceOnUse">
<stop stop-color="#56D364"/>
<stop offset="1" stop-color="#79C0FF"/>
</linearGradient>
<linearGradient id="paint20_linear_10736_27827" x1="1248" y1="84794.2" x2="-335933" y2="3409" gradientUnits="userSpaceOnUse">
<stop stop-color="#56D364"/>
<stop offset="1" stop-color="#79C0FF"/>
</linearGradient>
<linearGradient id="paint21_linear_10736_27827" x1="51164.6" y1="84794.2" x2="-286017" y2="3409" gradientUnits="userSpaceOnUse">
<stop stop-color="#56D364"/>
<stop offset="1" stop-color="#79C0FF"/>
</linearGradient>
<linearGradient id="paint22_linear_10736_27827" x1="400600" y1="84817.3" x2="63400.2" y2="3447.61" gradientUnits="userSpaceOnUse">
<stop stop-color="#56D364"/>
<stop offset="1" stop-color="#79C0FF"/>
</linearGradient>
<linearGradient id="paint23_linear_10736_27827" x1="425572" y1="84817.3" x2="88363.4" y2="3443.08" gradientUnits="userSpaceOnUse">
<stop stop-color="#56D364"/>
<stop offset="1" stop-color="#79C0FF"/>
</linearGradient>
<linearGradient id="paint24_linear_10736_27827" x1="51164.6" y1="96583.5" x2="-286019" y2="15202.2" gradientUnits="userSpaceOnUse">
<stop stop-color="#56D364"/>
<stop offset="1" stop-color="#79C0FF"/>
</linearGradient>
<linearGradient id="paint25_linear_10736_27827" x1="375630" y1="96583.5" x2="38446.8" y2="15202.2" gradientUnits="userSpaceOnUse">
<stop stop-color="#56D364"/>
<stop offset="1" stop-color="#79C0FF"/>
</linearGradient>
<linearGradient id="paint26_linear_10736_27827" x1="400600" y1="96583.5" x2="63408.4" y2="15198" gradientUnits="userSpaceOnUse">
<stop stop-color="#56D364"/>
<stop offset="1" stop-color="#79C0FF"/>
</linearGradient>
<linearGradient id="paint27_linear_10736_27827" x1="1248" y1="108367" x2="-335935" y2="26984.2" gradientUnits="userSpaceOnUse">
<stop stop-color="#56D364"/>
<stop offset="1" stop-color="#79C0FF"/>
</linearGradient>
<linearGradient id="paint28_linear_10736_27827" x1="425571" y1="108367" x2="88371.9" y2="26976" gradientUnits="userSpaceOnUse">
<stop stop-color="#56D364"/>
<stop offset="1" stop-color="#79C0FF"/>
</linearGradient>
<linearGradient id="paint29_linear_10736_27827" x1="101030" y1="84794.2" x2="-236233" y2="3366.97" gradientUnits="userSpaceOnUse">
<stop stop-color="#56D364"/>
<stop offset="1" stop-color="#79C0FF"/>
</linearGradient>
<linearGradient id="paint30_linear_10736_27827" x1="325712" y1="84817.3" x2="-11479" y2="3451.8" gradientUnits="userSpaceOnUse">
<stop stop-color="#56D364"/>
<stop offset="1" stop-color="#79C0FF"/>
</linearGradient>
<linearGradient id="paint31_linear_10736_27827" x1="1248" y1="673.088" x2="214.959" y2="555.363" gradientUnits="userSpaceOnUse">
<stop stop-color="#56D364"/>
<stop offset="1" stop-color="#79C0FF"/>
</linearGradient>
</defs>
</svg>
