<svg xmlns="http://www.w3.org/2000/svg" width="981" height="363" viewBox="0 0 981 363" version="1.1"><path d="M 389.917 200.414 C 389.688 200.642, 389.633 208.742, 389.795 218.414 L 390.089 236 396.545 236 L 403 236 403 232.481 C 403 229.227, 402.812 229.009, 400.500 229.589 L 398 230.217 398 218 L 398 205.783 400.500 206.411 C 402.812 206.991, 403 206.773, 403 203.519 L 403 200 396.667 200 C 393.183 200, 390.146 200.186, 389.917 200.414 M 947.384 201.442 C 946.222 204.469, 947.464 206.511, 950.286 206.212 L 953 205.924 953 218 L 953 230.076 950.250 229.788 C 947.797 229.531, 947.500 229.824, 947.500 232.500 L 947.500 235.500 954.250 235.796 L 961 236.091 961 218.046 L 961 200 954.469 200 C 949.703 200, 947.788 200.390, 947.384 201.442 M 422.995 204.250 C 422.993 205.488, 420.293 212.060, 416.995 218.856 C 413.698 225.652, 411 231.839, 411 232.606 C 411 233.633, 412.481 234, 416.617 234 C 421.706 234, 422.185 233.816, 421.720 232.037 C 420.928 229.008, 423.289 227.867, 429.666 228.198 C 435.200 228.484, 435.516 228.641, 435.816 231.250 C 436.125 233.932, 436.291 234, 442.566 234 C 446.105 234, 449 233.589, 449 233.086 C 449 232.583, 445.630 225.383, 441.510 217.086 L 434.020 202 428.510 202 C 423.464 202, 423 202.189, 422.995 204.250 M 450.500 217.886 L 450.500 234 460.782 234 C 472.061 234, 475.993 232.892, 479.955 228.597 C 483.174 225.106, 484.054 215.024, 481.592 209.835 C 478.877 204.113, 475.132 202.650, 462 202.181 L 450.500 201.771 450.500 217.886 M 482.386 204.400 C 482.717 205.721, 485.889 212.921, 489.435 220.400 C 495.468 233.127, 496.062 233.999, 498.691 233.985 C 500.236 233.976, 501.950 233.639, 502.500 233.235 C 503.490 232.507, 515.735 207.121, 516.721 203.750 C 517.166 202.230, 516.494 202, 511.617 202 C 506.348 202, 506 202.149, 506 204.410 C 506 205.736, 504.662 209.650, 503.027 213.107 L 500.053 219.394 496.983 212.623 C 495.161 208.605, 494.161 205.068, 494.524 203.925 C 495.085 202.156, 494.594 202, 488.459 202 C 481.911 202, 481.795 202.046, 482.386 204.400 M 522 203.294 C 522 204.063, 519.075 211.029, 515.500 218.774 C 511.925 226.518, 509 233.135, 509 233.477 C 509 233.820, 511.581 233.965, 514.735 233.800 C 520.101 233.519, 520.471 233.339, 520.485 231 C 520.500 228.573, 520.704 228.500, 527.500 228.500 L 534.500 228.500 534.312 231.250 L 534.123 234 545.896 234 L 557.669 234 557.277 225.750 L 556.885 217.500 564.693 225.777 C 571.804 233.316, 572.835 234.052, 576.250 234.027 L 580 234 580.014 220.250 C 580.021 212.688, 580.305 205.462, 580.645 204.193 C 581.241 201.968, 581.072 201.897, 575.881 202.193 C 571.652 202.434, 570.596 202.821, 570.947 204 C 571.192 204.825, 571.570 208.088, 571.785 211.250 C 572.198 217.296, 571.194 218.543, 568.739 215.037 C 567.983 213.958, 565.022 210.559, 562.160 207.483 C 557.106 202.053, 556.820 201.901, 552.228 202.196 C 548.558 202.432, 547.608 202.836, 547.982 204 C 548.784 206.494, 549.178 227.157, 548.476 229.921 C 547.909 232.154, 546.795 230.490, 540.161 217.500 L 532.500 202.500 527.250 202.198 C 523.275 201.969, 522 202.235, 522 203.294 M 593.914 202.915 C 586.272 205.352, 582.199 212.172, 583.441 220.453 C 584.776 229.360, 591.307 234.176, 602.051 234.176 C 610.867 234.176, 614.398 232.542, 614.811 228.270 L 615.123 225.053 607.054 225.675 C 596.918 226.457, 595 225.220, 595 217.902 C 595 214.087, 595.452 212.797, 597.223 211.557 C 600.042 209.582, 605.031 209.568, 609.709 211.523 C 614.221 213.408, 615.220 212.524, 614.814 207.008 L 614.500 202.743 605.500 202.417 C 600.550 202.237, 595.336 202.461, 593.914 202.915 M 616.500 218 L 616.500 234.051 631 233.775 L 645.500 233.500 645.500 229.532 L 645.500 225.565 636.750 225.867 C 628.337 226.158, 628 226.086, 628 223.992 C 628 221.969, 628.406 221.839, 633.750 222.158 L 639.500 222.500 639.801 217.840 L 640.102 213.180 634.051 213.729 C 628.299 214.251, 628 214.168, 628 212.054 C 628 209.902, 628.283 209.840, 636.750 210.133 L 645.500 210.435 645.500 206.468 L 645.500 202.500 631 202.225 L 616.500 201.949 616.500 218 M 647.500 217.886 L 647.500 234 657.782 234 C 669.061 234, 672.993 232.892, 676.955 228.597 C 680.174 225.106, 681.054 215.024, 678.592 209.835 C 675.877 204.113, 672.132 202.650, 659 202.181 L 647.500 201.771 647.500 217.886 M 690.702 202.631 C 690.355 202.979, 690.531 204.123, 691.093 205.174 C 692.085 207.028, 691.998 228.882, 690.987 232 C 690.605 233.177, 691.595 233.564, 695.587 233.797 L 700.675 234.093 700.288 225.797 L 699.902 217.500 707.701 225.765 C 714.791 233.280, 715.841 234.030, 719.250 234.015 L 723 234 723 219.559 C 723 210.856, 723.404 204.868, 724.016 204.490 C 726.113 203.194, 723.717 202, 719.018 202 L 714.154 202 714.721 209.500 C 715.047 213.803, 714.897 217, 714.370 217 C 713.864 217, 710.578 213.625, 707.066 209.500 C 700.807 202.147, 700.590 202, 696.007 202 C 693.437 202, 691.049 202.284, 690.702 202.631 M 727.500 218 L 727.500 234.052 741.500 233.776 L 755.500 233.500 755.798 229.440 L 756.096 225.379 747.048 225.812 C 738.212 226.235, 738 226.192, 738 224.002 C 738 221.880, 738.321 221.783, 744 222.194 L 750 222.628 750 218 L 750 213.372 744 213.806 C 738.321 214.217, 738 214.120, 738 211.998 C 738 209.808, 738.212 209.765, 747.048 210.188 L 756.096 210.621 755.798 206.560 L 755.500 202.500 741.500 202.224 L 727.500 201.948 727.500 218 M 757 206.831 L 757 211.706 762.112 211.215 L 767.225 210.724 766.855 222.362 L 766.486 234 772.500 234 L 778.514 234 778.146 222.400 L 777.778 210.800 783.126 211.150 C 788.294 211.488, 788.491 211.407, 788.987 208.714 C 789.411 206.411, 790.452 208.312, 795.007 219.714 L 800.513 233.500 804.370 233.500 C 808.206 233.500, 808.239 233.465, 810.951 226.624 L 813.676 219.749 816.088 226.624 L 818.500 233.500 822.486 233.500 L 826.472 233.500 832.159 219.500 C 835.287 211.800, 837.881 204.713, 837.923 203.750 C 837.986 202.309, 837.128 202, 833.067 202 C 828.340 202, 828.136 202.115, 828.181 204.750 C 828.207 206.262, 827.194 210.200, 825.929 213.500 L 823.629 219.500 821.019 211 L 818.410 202.500 814.955 202.500 C 811.569 202.500, 811.438 202.658, 808.396 210.390 C 806.688 214.730, 805.061 217.880, 804.779 217.390 C 803.416 215.023, 800.918 205.920, 801.191 204.315 C 801.481 202.613, 800.109 202.483, 779.250 202.228 L 757 201.956 757 206.831 M 843 203.752 C 837.958 206.271, 834.693 212.965, 835.395 219.347 C 836.511 229.486, 842.150 234.125, 853.360 234.125 C 860.437 234.125, 864.052 232.739, 868 228.514 C 870.227 226.132, 870.500 224.981, 870.500 218 C 870.500 211.028, 870.224 209.862, 868 207.452 C 866.625 205.961, 864.052 204.125, 862.282 203.371 C 857.688 201.413, 847.269 201.619, 843 203.752 M 872.500 218 L 872.500 234 878.582 234 L 884.665 234 884.208 228.500 C 883.915 224.967, 884.136 223, 884.825 223 C 886.546 223, 891.152 229.675, 890.811 231.675 C 890.523 233.364, 891.466 233.500, 903.467 233.500 L 916.433 233.500 916.147 228.852 C 915.990 226.295, 916.306 223.929, 916.850 223.593 C 918.143 222.794, 924.059 229.984, 923.743 231.970 C 923.546 233.212, 924.957 233.555, 931.250 233.792 C 936.190 233.978, 939 233.703, 939 233.032 C 939 232.454, 935.793 228.522, 931.874 224.295 L 924.749 216.610 931.874 210.206 C 935.793 206.684, 939 203.397, 939 202.901 C 939 202.405, 935.625 202, 931.500 202 C 924.939 202, 924 202.226, 924 203.804 C 924 205.583, 918.187 212, 916.575 212 C 916.119 212, 915.962 209.750, 916.226 207 L 916.706 202 910.603 201.999 L 904.500 201.999 904.844 216.499 C 905.053 225.345, 904.813 231, 904.227 231 C 903.159 231, 898 223.602, 898 222.071 C 898 221.537, 898.609 220.740, 899.354 220.300 C 901.419 219.080, 903 215.481, 903 212 C 903 204.237, 898.589 202, 883.282 202 L 872.500 202 872.500 218 M 462 218 L 462 226 464.889 226 C 469.557 226, 472.455 222.936, 472.455 218 C 472.455 213.064, 469.557 210, 464.889 210 L 462 210 462 218 M 659 218 L 659 226 661.889 226 C 666.581 226, 669.273 223.084, 669.273 218 C 669.273 212.916, 666.581 210, 661.889 210 L 659 210 659 218 M 848.245 211.250 C 845.475 214.712, 845.686 221.543, 848.653 224.510 C 849.472 225.330, 851.660 226, 853.515 226 C 857.646 226, 860 223.096, 860 218 C 860 212.685, 857.673 210, 853.066 210 C 850.964 210, 848.795 210.563, 848.245 211.250 M 884 213 C 884 215.741, 884.291 216, 887.378 216 C 889.235 216, 891.315 215.325, 892 214.500 C 893.853 212.267, 891.524 210, 887.378 210 C 884.291 210, 884 210.259, 884 213 M 427.730 215.750 C 427.453 216.713, 426.903 218.287, 426.506 219.250 C 425.911 220.696, 426.326 221, 428.893 221 C 430.602 221, 432 220.842, 432 220.649 C 432 220.456, 431.506 218.881, 430.902 217.149 C 429.678 213.637, 428.488 213.113, 427.730 215.750 M 525.551 216.901 C 523.547 220.777, 523.819 221.246, 527.818 220.821 L 530.828 220.500 529.039 217.058 L 527.250 213.616 525.551 216.901" stroke="none" fill="#fc0404" fill-rule="evenodd"/><path d="M 185 34.092 C 180.875 35.728, 171.650 39.271, 164.500 41.965 C 149.514 47.612, 113.458 61.352, 84.500 72.451 C 73.500 76.667, 58.988 82.161, 52.250 84.659 L 40 89.201 40 182.479 L 40 275.757 42.750 276.834 C 46.377 278.255, 103.154 300.680, 133.500 312.677 C 146.700 317.896, 163.028 324.379, 169.785 327.083 C 186.454 333.755, 189.021 333.721, 206.920 326.590 C 235.432 315.231, 289.397 293.877, 310.500 285.603 C 322.600 280.858, 333.175 276.595, 334 276.129 C 335.317 275.386, 335.500 263.870, 335.500 181.962 L 335.500 88.642 315 80.259 C 303.725 75.649, 291.800 70.831, 288.500 69.554 C 281.599 66.882, 212.254 38.431, 201.782 33.975 C 197.937 32.339, 194.275 31.026, 193.645 31.058 C 193.015 31.091, 189.125 32.456, 185 34.092 M 179 49.903 C 172.125 52.517, 158.625 57.637, 149 61.279 C 139.375 64.921, 118.450 72.909, 102.500 79.030 C 86.550 85.150, 70.232 91.332, 66.239 92.768 C 62.245 94.203, 59.320 95.682, 59.739 96.055 C 60.157 96.428, 69.788 100.368, 81.141 104.811 L 101.782 112.888 122.141 104.918 C 133.338 100.535, 148.800 94.508, 156.500 91.526 C 231.030 62.662, 233 61.877, 233 61.053 C 233 60.093, 195.400 44.982, 193.243 45.075 C 192.285 45.116, 185.875 47.289, 179 49.903 M 256.500 78.002 C 241.104 84.438, 190.222 105.123, 159.400 117.478 C 149.445 121.468, 140.446 125.211, 139.401 125.795 C 137.196 127.029, 137.962 127.404, 161.353 136.546 C 169.134 139.587, 178.146 143.196, 181.380 144.565 L 187.259 147.055 200.380 141.928 C 216.434 135.655, 235.595 128.072, 278 111.210 C 295.875 104.103, 312.229 97.724, 314.342 97.036 C 316.455 96.347, 317.805 95.449, 317.342 95.040 C 316.879 94.631, 312.450 92.683, 307.500 90.712 C 302.550 88.741, 291.300 84.179, 282.500 80.574 C 273.700 76.970, 266.275 74.070, 266 74.130 C 265.725 74.191, 261.450 75.933, 256.500 78.002 M 52.244 186.989 L 52.500 267.197 72.500 275.136 C 83.500 279.503, 101.275 286.401, 112 290.466 C 122.725 294.531, 137.800 300.425, 145.500 303.564 C 153.200 306.703, 162.650 310.521, 166.500 312.048 C 170.350 313.576, 175.190 315.547, 177.256 316.428 L 181.012 318.032 180.756 237.820 L 180.500 157.607 152.500 146.508 L 124.500 135.409 124.229 155.204 C 123.943 176.147, 123.580 177.508, 119.487 172.986 C 118.450 171.840, 116.942 171.201, 115.989 171.503 C 115.068 171.796, 113.160 171.127, 111.749 170.018 C 110.339 168.908, 108.298 168, 107.215 168 C 106.131 168, 104.696 167.338, 104.024 166.529 C 103.353 165.720, 101.835 165.158, 100.652 165.279 C 98.527 165.497, 98.494 165.245, 98 145.087 L 97.500 124.673 76 116.250 C 64.175 111.617, 53.935 107.591, 53.244 107.304 C 52.241 106.887, 52.040 122.930, 52.244 186.989 M 308.500 112.549 C 301.350 115.473, 285.825 121.678, 274 126.338 C 262.175 130.997, 239.675 139.864, 224 146.041 C 208.325 152.219, 195.160 157.574, 194.744 157.943 C 194.328 158.311, 194.103 194.433, 194.244 238.213 L 194.500 317.814 218.500 308.377 C 231.700 303.186, 251.275 295.488, 262 291.270 C 272.725 287.052, 290.725 279.917, 302 275.414 L 322.500 267.229 322.756 187.114 C 322.897 143.051, 322.672 107.052, 322.256 107.117 C 321.840 107.181, 315.650 109.625, 308.500 112.549 M 444.586 122.861 C 444.213 123.465, 444.378 124.838, 444.954 125.914 C 446.404 128.623, 446.345 159.255, 444.887 160.713 C 444.275 161.325, 444.115 162.377, 444.532 163.052 C 445.747 165.018, 474.616 163.767, 478.878 161.563 C 484.714 158.545, 486.502 149.589, 482.234 144.750 C 480.836 143.166, 480.861 142.811, 482.499 141.001 C 486.626 136.441, 484.065 126.205, 478.198 123.810 C 474.393 122.257, 445.464 121.440, 444.586 122.861 M 487.702 142.713 L 487.904 163.500 512.202 163.500 L 536.500 163.500 536.186 160.250 L 535.872 157 545.377 157 C 550.605 157, 555.154 157.441, 555.487 157.979 C 555.820 158.518, 555.630 159.823, 555.065 160.879 C 554.273 162.359, 554.396 162.938, 555.600 163.400 C 557.899 164.282, 569.292 164.102, 570.776 163.159 C 571.732 162.553, 569.599 157.348, 562.276 142.425 L 552.500 122.500 545.530 122.500 L 538.561 122.500 538.386 125.500 C 538.159 129.387, 524 158.394, 524 154.972 L 524 152.468 512.946 152.847 L 501.892 153.225 502.202 139.362 C 502.372 131.738, 502.734 124.825, 503.006 124 C 503.413 122.765, 502.085 122.449, 495.500 122.213 L 487.500 121.926 487.702 142.713 M 586.224 123.469 C 579.997 125.413, 577.299 127.499, 574.843 132.265 C 571.710 138.342, 571.818 147.229, 575.102 153.609 C 578.872 160.936, 584.555 163.503, 596.979 163.491 C 609.544 163.478, 613 161.830, 613 155.849 C 613 151.756, 612.995 151.751, 609.750 152.408 C 595.410 155.313, 588.822 153.768, 587.020 147.076 C 583.861 135.344, 592.847 128.796, 605.500 133.610 C 613.293 136.574, 612.852 136.731, 613.259 130.852 C 613.463 127.908, 613.713 133.236, 613.815 142.691 C 613.929 153.278, 613.616 160.119, 613 160.500 C 610.310 162.162, 612.761 163, 620.314 163 L 628.628 163 628.209 157.210 C 627.584 148.567, 629.388 147.712, 634.856 154.060 C 637.921 157.619, 638.953 159.573, 638.507 160.977 C 638.037 162.457, 638.450 163.075, 640.205 163.515 C 643.986 164.464, 657.304 163.610, 657.706 162.392 C 657.907 161.783, 654.008 156.833, 649.042 151.392 C 644.075 145.952, 640.009 141.263, 640.006 140.974 C 640.003 140.685, 644.289 136.727, 649.532 132.180 C 654.774 127.633, 658.798 123.482, 658.473 122.956 C 657.815 121.892, 639.714 121.619, 638.675 122.658 C 638.313 123.020, 638.449 123.836, 638.976 124.471 C 639.641 125.272, 638.070 127.449, 633.858 131.563 L 627.782 137.500 628.241 129.750 L 628.700 122 620.050 122 C 615.292 122, 610.932 122.468, 610.359 123.041 C 609.644 123.756, 607.938 123.764, 604.909 123.065 C 598.944 121.690, 591.398 121.853, 586.224 123.469 M 661.687 122.646 C 661.309 123.024, 661 126.006, 661 129.274 C 661 134.563, 661.192 135.128, 662.750 134.430 C 663.712 133.998, 666.671 133.454, 669.324 133.221 L 674.147 132.797 673.824 147.900 L 673.500 163.003 681.750 163.001 C 689.765 163, 691.110 162.510, 688.969 160.369 C 688.336 159.736, 688.046 154.342, 688.219 146.419 L 688.500 133.500 692.886 133.186 C 695.298 133.013, 697.751 133.351, 698.336 133.936 C 698.921 134.521, 700.006 135, 700.748 135 C 701.766 135, 702.023 133.472, 701.798 128.750 L 701.500 122.500 681.937 122.229 C 671.178 122.081, 662.065 122.268, 661.687 122.646 M 705.702 142.750 L 705.904 163.500 713.202 163.500 C 719.954 163.500, 720.473 163.350, 720.138 161.500 C 719.940 160.400, 719.561 157.137, 719.296 154.250 C 718.857 149.456, 718.994 149, 720.881 149 C 723.870 149, 730.262 158.641, 728.927 161.136 C 727.539 163.729, 730.053 164.131, 745.500 163.788 L 758.500 163.500 758.500 160.500 L 758.500 157.500 768 157.500 L 777.500 157.500 777.500 160.500 L 777.500 163.500 784.500 163.757 C 788.350 163.899, 792.074 163.640, 792.776 163.182 C 793.737 162.555, 791.632 157.415, 784.276 142.425 L 774.500 122.500 767.530 122.500 L 760.561 122.500 760.379 125.500 C 760.279 127.150, 756.835 135.392, 752.724 143.816 L 745.251 159.131 741.170 153.378 L 737.088 147.625 739.980 145.866 C 743.874 143.498, 745 141.079, 745 135.082 C 745 130.971, 744.488 129.469, 742.250 127.011 C 738.763 123.181, 732.839 122, 717.114 122 L 705.500 121.999 705.702 142.750 M 808.224 123.469 C 801.997 125.413, 799.299 127.499, 796.843 132.265 C 793.710 138.342, 793.818 147.229, 797.102 153.609 C 800.512 160.236, 806.605 163.372, 816.973 163.838 C 821.998 164.064, 825.996 163.658, 829 162.616 C 831.678 161.687, 833.635 161.449, 833.833 162.028 C 834.017 162.562, 837.879 163, 842.416 163 L 850.665 163 850.209 157.502 C 849.911 153.914, 850.194 151.471, 851.022 150.474 C 852.122 149.148, 852.923 149.646, 857.040 154.222 C 860.662 158.247, 861.533 159.815, 860.709 160.826 C 859.915 161.801, 860.009 162.399, 861.064 163.081 C 863.069 164.379, 879.246 163.781, 879.705 162.392 C 879.907 161.783, 876.008 156.833, 871.042 151.392 C 866.075 145.952, 862.009 141.263, 862.006 140.974 C 862.003 140.685, 866.289 136.727, 871.532 132.180 C 876.774 127.633, 880.798 123.482, 880.473 122.956 C 879.815 121.892, 861.714 121.619, 860.675 122.658 C 860.313 123.020, 860.449 123.836, 860.976 124.471 C 861.641 125.272, 860.070 127.449, 855.858 131.563 L 849.782 137.500 850.241 129.750 L 850.700 122 842.050 122 C 837.292 122, 832.932 122.468, 832.359 123.041 C 831.644 123.756, 829.938 123.764, 826.909 123.065 C 820.944 121.690, 813.398 121.853, 808.224 123.469 M 835 131 C 835 136.498, 834.717 136.703, 830.222 134.461 C 823.007 130.862, 812.294 131.713, 809.962 136.071 C 808.704 138.422, 808.724 147.616, 809.992 149.986 C 812.068 153.863, 820.017 154.747, 831.740 152.402 C 834.829 151.784, 834.880 151.838, 835.262 156.138 C 835.476 158.537, 835.729 152.738, 835.825 143.250 C 835.921 133.762, 835.775 126, 835.500 126 C 835.225 126, 835 128.250, 835 131 M 719.667 132.667 C 719.300 133.033, 719 134.833, 719 136.667 L 719 140 724.300 140 C 727.215 140, 730.140 139.460, 730.800 138.800 C 732.602 136.998, 732.246 134.202, 730.066 133.035 C 727.913 131.883, 720.705 131.628, 719.667 132.667 M 459 135.950 C 459 138.924, 459.118 139, 463.750 138.985 C 469.350 138.967, 471.330 137.960, 470.839 135.380 C 470.546 133.844, 469.429 133.445, 464.740 133.200 L 459 132.900 459 135.950 M 543.386 141.745 C 542.349 144.355, 541.350 146.830, 541.167 147.245 C 540.983 147.660, 543.121 148, 545.917 148 C 548.712 148, 551 147.760, 551 147.467 C 551 146.678, 546.025 137, 545.619 137 C 545.428 137, 544.423 139.135, 543.386 141.745 M 765.500 141.720 C 764.400 144.312, 763.350 146.786, 763.167 147.217 C 762.983 147.647, 765.121 148, 767.917 148 C 770.712 148, 773 147.760, 773 147.467 C 773 146.814, 768.059 136.999, 767.733 137.004 C 767.605 137.006, 766.600 139.128, 765.500 141.720 M 459 150.050 L 459 153.100 464.740 152.800 C 469.429 152.555, 470.546 152.156, 470.839 150.620 C 471.330 148.040, 469.350 147.033, 463.750 147.015 C 459.118 147, 459 147.076, 459 150.050" stroke="none" fill="#1cfc04" fill-rule="evenodd"/></svg>