<?xml version="1.0" encoding="UTF-8" standalone="no"?>
<svg
   width="512"
   height="512"
   viewBox="0 0 52.4288 52.4288"
   preserveAspectRatio="xMinYMin"
   version="1.1"
   id="svg16"
   sodipodi:docname="elasticsearch-logo.svg"
   inkscape:version="1.2.2 (b0a8486541, 2022-12-01)"
   xmlns:inkscape="http://www.inkscape.org/namespaces/inkscape"
   xmlns:sodipodi="http://sodipodi.sourceforge.net/DTD/sodipodi-0.dtd"
   xmlns="http://www.w3.org/2000/svg"
   xmlns:svg="http://www.w3.org/2000/svg">
  <defs
     id="defs20">
    <filter
       style="color-interpolation-filters:sRGB"
       inkscape:label="Drop Shadow"
       id="filter5437"
       x="0"
       y="-0.0074534941"
       width="1.0164088"
       height="1.0074535">
      <feFlood
         flood-opacity="0.0862745"
         flood-color="rgb(0,0,0)"
         result="flood"
         id="feFlood5427" />
      <feComposite
         in="flood"
         in2="SourceGraphic"
         operator="out"
         result="composite1"
         id="feComposite5429" />
      <feGaussianBlur
         in="composite1"
         stdDeviation="0"
         result="blur"
         id="feGaussianBlur5431" />
      <feOffset
         dx="4.2"
         dy="-1.9"
         result="offset"
         id="feOffset5433" />
      <feComposite
         in="offset"
         in2="SourceGraphic"
         operator="atop"
         result="composite2"
         id="feComposite5435" />
    </filter>
  </defs>
  <sodipodi:namedview
     id="namedview18"
     pagecolor="#ffffff"
     bordercolor="#000000"
     borderopacity="0.25"
     inkscape:showpageshadow="2"
     inkscape:pageopacity="0.0"
     inkscape:pagecheckerboard="0"
     inkscape:deskcolor="#d1d1d1"
     showgrid="false"
     inkscape:zoom="0.69679999"
     inkscape:cx="679.53502"
     inkscape:cy="493.68542"
     inkscape:window-width="1920"
     inkscape:window-height="1007"
     inkscape:window-x="0"
     inkscape:window-y="0"
     inkscape:window-maximized="1"
     inkscape:current-layer="svg16" />
  <g
     id="g1227"
     style="filter:url(#filter5437)"
     transform="matrix(0.20415087,0,0,0.20415087,-0.34154484,0.20884695)">
    <path
       d="m 255.96,134.393 c 0,-21.521 -13.373,-40.117 -33.223,-47.43 a 75.239,75.239 0 0 0 1.253,-13.791 c 0,-39.909 -32.386,-72.295 -72.295,-72.295 -23.193,0 -44.923,11.074 -58.505,30.088 -6.686,-5.224 -14.835,-7.94 -23.402,-7.94 -21.104,0 -38.446,17.133 -38.446,38.446 0,4.597 0.836,9.194 2.298,13.373 C 13.582,81.739 0,100.962 0,122.274 c 0,21.522 13.373,40.327 33.431,47.64 -0.835,4.388 -1.253,8.985 -1.253,13.79 0,39.7 32.386,72.087 72.086,72.087 23.402,0 44.924,-11.283 58.505,-30.088 6.686,5.223 15.044,8.149 23.611,8.149 21.104,0 38.446,-17.134 38.446,-38.446 0,-4.597 -0.836,-9.194 -2.298,-13.373 19.64,-7.104 33.431,-26.327 33.431,-47.64 z"
       fill="#ffffff"
       id="path2" />
    <path
       d="m 100.085,110.364 57.043,26.119 57.669,-50.565 a 64.312,64.312 0 0 0 1.253,-12.746 c 0,-35.52 -28.834,-64.355 -64.355,-64.355 -21.313,0 -41.162,10.447 -53.072,27.998 l -9.612,49.73 11.074,23.82 z"
       fill="#f4bd19"
       id="path4" />
    <path
       d="m 40.953,170.75 c -0.835,4.179 -1.253,8.567 -1.253,12.955 0,35.52 29.043,64.564 64.564,64.564 21.522,0 41.372,-10.656 53.49,-28.208 l 9.403,-49.729 -12.746,-24.238 -57.251,-26.118 z"
       fill="#3cbeb1"
       id="path6" />
    <path
       d="m 40.536,71.918 39.073,9.194 8.775,-44.506 c -5.432,-4.179 -11.91,-6.268 -18.805,-6.268 -16.925,0 -30.924,13.79 -30.924,30.924 0,3.552 0.627,7.313 1.88,10.656 z"
       fill="#e9478c"
       id="path8" />
    <path
       d="m 37.192,81.32 c -17.551,5.642 -29.67,22.567 -29.67,40.954 0,17.97 11.074,34.059 27.79,40.327 l 54.953,-49.73 -10.03,-21.52 -43.043,-10.03 z"
       fill="#2c458f"
       id="path10" />
    <path
       d="m 167.784,219.852 c 5.432,4.18 11.91,6.478 18.596,6.478 16.925,0 30.924,-13.79 30.924,-30.924 0,-3.761 -0.627,-7.314 -1.88,-10.657 l -39.073,-9.193 z"
       fill="#95c63d"
       id="path12" />
    <path
       d="m 175.724,165.317 43.043,10.03 c 17.551,-5.85 29.67,-22.566 29.67,-40.954 0,-17.97 -11.074,-33.849 -27.79,-40.326 l -56.415,49.311 11.492,21.94 z"
       fill="#176655"
       id="path14" />
  </g>
</svg>
