<?xml version="1.0" encoding="UTF-8" standalone="no"?>
<!-- Created with Inkscape (http://www.inkscape.org/) -->

<svg
   width="512"
   height="512"
   viewBox="0 0 135.46666 135.46667"
   version="1.1"
   id="svg5"
   xml:space="preserve"
   inkscape:export-filename="arkime.svg"
   inkscape:export-xdpi="96"
   inkscape:export-ydpi="96"
   sodipodi:docname="arkime.svg"
   inkscape:version="1.2.2 (b0a8486541, 2022-12-01)"
   xmlns:inkscape="http://www.inkscape.org/namespaces/inkscape"
   xmlns:sodipodi="http://sodipodi.sourceforge.net/DTD/sodipodi-0.dtd"
   xmlns:xlink="http://www.w3.org/1999/xlink"
   xmlns="http://www.w3.org/2000/svg"
   xmlns:svg="http://www.w3.org/2000/svg"><sodipodi:namedview
     id="namedview7"
     pagecolor="#ffffff"
     bordercolor="#000000"
     borderopacity="0.25"
     inkscape:showpageshadow="2"
     inkscape:pageopacity="0.0"
     inkscape:pagecheckerboard="0"
     inkscape:deskcolor="#d1d1d1"
     inkscape:document-units="px"
     showgrid="false"
     inkscape:zoom="1.6621094"
     inkscape:cx="237.64982"
     inkscape:cy="256.60165"
     inkscape:window-width="1920"
     inkscape:window-height="1032"
     inkscape:window-x="0"
     inkscape:window-y="0"
     inkscape:window-maximized="1"
     inkscape:current-layer="layer1" /><defs
     id="defs2"><linearGradient
       inkscape:collect="always"
       id="linearGradient1007"><stop
         style="stop-color:#5dad88;stop-opacity:1;"
         offset="0.00419906"
         id="stop1003" /><stop
         style="stop-color:#024e82;stop-opacity:1;"
         offset="0.68153584"
         id="stop1005" /></linearGradient><linearGradient
       inkscape:collect="always"
       xlink:href="#linearGradient1007"
       id="linearGradient1009"
       x1="37.074055"
       y1="67.73333"
       x2="98.392609"
       y2="67.73333"
       gradientUnits="userSpaceOnUse"
       gradientTransform="matrix(1.0758696,0,0,1.0758696,-5.1389063,-5.1389047)" /><filter
       style="color-interpolation-filters:sRGB;"
       inkscape:label="Drop Shadow"
       id="filter1189"
       x="0"
       y="-0.01476378"
       width="1.0030316"
       height="1.0147638"><feFlood
         flood-opacity="0.341176"
         flood-color="rgb(4,80,131)"
         result="flood"
         id="feFlood1179" /><feComposite
         in="flood"
         in2="SourceGraphic"
         operator="out"
         result="composite1"
         id="feComposite1181" /><feGaussianBlur
         in="composite1"
         stdDeviation="0"
         result="blur"
         id="feGaussianBlur1183" /><feOffset
         dx="0.2"
         dy="-2"
         result="offset"
         id="feOffset1185" /><feComposite
         in="offset"
         in2="SourceGraphic"
         operator="atop"
         result="composite2"
         id="feComposite1187" /></filter></defs><g
     inkscape:label="Layer 1"
     inkscape:groupmode="layer"
     id="layer1"><path
       style="fill:url(#linearGradient1009);fill-opacity:1;stroke-width:0.113863;filter:url(#filter1189)"
       d="m 68.096005,135.11328 c -1.391132,-1.04912 -2.772893,-2.19207 -3.925665,-3.24719 -0.668675,-0.61203 -1.346408,-1.21527 -1.506056,-1.34051 -0.532169,-0.41749 -3.785695,-4.04586 -4.628553,-5.16181 -1.382224,-1.83009 -2.612115,-3.69214 -3.434402,-5.19972 -0.69002,-1.26505 -1.383514,-2.72746 -1.764749,-3.7214 -0.127716,-0.33296 -0.277682,-0.70786 -0.333261,-0.83311 -0.05562,-0.12525 -0.188891,-0.50953 -0.296241,-0.85397 -0.107372,-0.34444 -0.260081,-0.80558 -0.339405,-1.02477 -0.130653,-0.36104 -0.278962,-0.905 -0.605348,-2.22032 -0.516988,-2.08338 -0.815058,-4.69601 -0.815058,-7.14398 0,-2.3902 0.01377,-2.45176 0.809054,-3.62591 2.183166,-3.223012 4.969249,-6.26441 7.970301,-8.700667 0.15429,-0.12525 0.560582,-0.461475 0.90287,-0.747169 0.342298,-0.285692 1.057881,-0.846382 1.5902,-1.245974 0.532308,-0.399594 0.993447,-0.757791 1.024765,-0.795992 0.03131,-0.0382 0.236261,-0.178644 0.455448,-0.312094 0.219187,-0.13345 0.502205,-0.335697 0.628932,-0.44944 0.126727,-0.113744 0.459773,-0.366562 0.740102,-0.561819 0.280339,-0.195256 0.740273,-0.516285 1.022087,-0.713395 0.281813,-0.19711 1.409055,-0.959645 2.504979,-1.694519 1.095935,-0.734876 2.04384,-1.379024 2.106467,-1.431442 0.06262,-0.05242 1.113008,-0.754014 2.334185,-1.559101 1.221177,-0.805088 2.539526,-1.68449 2.929668,-1.954227 6.1047,-4.220748 8.954173,-6.510023 12.443692,-9.997311 2.704585,-2.702861 4.583506,-5.044836 6.212308,-7.743342 0.982118,-1.627112 2.553264,-4.766226 2.553264,-5.101355 0,-0.140724 0.03066,-0.151188 0.135635,-0.04624 0.104144,0.104111 0.105005,0.261618 0.0032,0.677483 -0.07251,0.298014 -0.161833,0.746795 -0.198412,0.997293 -0.07284,0.498468 -0.110535,0.669738 -0.627103,2.846572 -0.193194,0.814119 -0.42598,1.710789 -0.51731,1.9926 -0.922139,2.845517 -1.342331,4.063218 -1.630578,4.725309 -0.05455,0.125249 -0.190138,0.458298 -0.30134,0.740109 -0.111213,0.28181 -0.347915,0.832758 -0.526014,1.224329 -0.1781,0.391571 -0.323815,0.744863 -0.323815,0.785093 0,0.144257 -2.234625,4.692251 -2.928894,5.960978 -0.709192,1.296023 -0.97547,1.76823 -1.059409,1.878738 -0.04755,0.06263 -0.251571,0.421292 -0.453339,0.79704 -0.424323,0.790219 -3.729481,6.214115 -4.961007,8.141194 -1.602852,2.508141 -2.781371,4.401369 -4.429926,7.116427 -0.912606,1.50299 -1.709385,2.80957 -1.770612,2.90351 -0.06122,0.0939 -0.146114,0.24765 -0.188622,0.34158 -0.0425,0.0939 -0.263276,0.47823 -0.490586,0.85398 -0.227309,0.375742 -0.450434,0.760032 -0.495836,0.853972 -0.0454,0.0939 -0.256358,0.47822 -0.468788,0.85397 -1.928056,3.41032 -3.841081,7.58209 -4.855841,10.58925 -0.126802,0.37574 -0.274056,0.78565 -0.327237,0.9109 -0.167437,0.39435 -0.797961,2.51851 -0.79737,2.68626 3.45e-4,0.0882 -0.07241,0.39089 -0.161671,0.67269 -0.272313,0.86006 -0.733474,3.13944 -0.967551,4.78224 -0.55077,3.86559 -0.488466,8.27213 0.173882,12.29719 0.40286,2.4482 0.409864,2.41757 -0.411574,1.79807 z m -26.38609,-22.26492 c -0.918094,-1.18565 -2.147791,-3.22826 -2.930422,-4.86763 -0.358759,-0.75149 -0.698411,-1.45537 -0.754787,-1.56417 -0.240059,-0.46335 -1.468712,-4.14441 -1.468712,-4.4003 0,-0.0903 -0.07338,-0.42481 -0.163016,-0.74344 -0.468821,-1.666122 -0.57431,-2.786292 -0.574568,-6.101669 -2.26e-4,-2.627875 0.03766,-3.440002 0.199358,-4.269858 0.6584,-3.380205 1.443193,-5.762138 2.679023,-8.1312 0.280555,-0.537805 0.588296,-1.131543 0.683888,-1.319417 0.216884,-0.426269 1.289354,-2.070491 1.893864,-2.903503 1.524862,-2.101273 3.9402,-4.54054 6.383457,-6.446698 1.332884,-1.039879 4.298637,-2.957272 6.091283,-3.938092 0.407066,-0.222716 0.919449,-0.510579 1.138636,-0.639695 0.446486,-0.263016 6.593381,-3.329049 7.742668,-3.861998 0.407066,-0.188761 1.175635,-0.548503 1.707943,-0.799426 0.532308,-0.250921 1.224028,-0.570483 1.537149,-0.710133 0.558204,-0.248953 0.99816,-0.453866 3.985204,-1.856146 1.542216,-0.724 5.431528,-2.679253 6.31939,-3.176918 0.281813,-0.157959 0.819812,-0.456536 1.19556,-0.663503 0.375747,-0.206966 1.004313,-0.572722 1.396823,-0.81279 0.392509,-0.240069 0.740435,-0.436488 0.773184,-0.436488 0.03271,0 0.198369,-0.09751 0.368044,-0.21668 0.169687,-0.119173 0.846516,-0.563517 1.504077,-0.98743 1.043142,-0.672489 3.237851,-2.261848 3.597428,-2.605177 0.06853,-0.06544 0.375823,-0.323936 0.682844,-0.574433 0.941515,-0.768166 2.986367,-2.794043 3.850139,-3.814407 1.178573,-1.392231 1.762221,-2.189751 2.499859,-3.415886 0.357909,-0.594933 0.697927,-1.158555 0.755594,-1.252491 0.401439,-0.653897 1.594503,-3.348404 1.594503,-3.601154 0,-0.225052 0.202156,-0.192706 0.268365,0.04294 0.249311,0.887393 0.316736,2.049869 0.269107,4.639913 -0.06982,3.79892 -0.32999,5.782148 -1.217174,9.279823 -0.220295,0.868479 -0.841663,2.640445 -1.457373,4.155994 -0.239801,0.590269 -1.341577,2.763269 -1.90515,3.757475 -1.507153,2.658793 -4.546313,6.250852 -7.514282,8.881304 -2.062109,1.827617 -2.812162,2.457912 -3.92884,3.301564 -0.407066,0.307532 -0.765728,0.587848 -0.797047,0.622924 -0.09382,0.105059 -1.102949,0.83951 -2.732709,1.988806 -0.845429,0.596197 -1.588381,1.124475 -1.651008,1.173952 -0.132343,0.104553 -0.928335,0.640822 -6.034736,4.065606 -2.066605,1.386047 -4.09052,2.75285 -4.497576,3.03734 -1.870345,1.307166 -3.225543,2.292245 -4.286619,3.115906 -1.205652,0.93588 -2.632987,2.078995 -2.88672,2.31189 -0.156571,0.143715 -0.603315,0.528002 -0.992759,0.853971 -0.914823,0.765729 -3.658602,3.534704 -4.597191,4.639406 -2.188663,2.576046 -3.276464,4.219016 -5.123291,7.738078 -0.420245,0.80074 -1.079087,2.44846 -1.543292,3.85964 -0.607092,1.84558 -1.406743,5.42247 -1.406936,6.29331 -1.08e-4,0.46756 -0.09199,0.77789 -0.230441,0.77789 -0.05067,0 -0.240898,-0.19215 -0.422741,-0.427 z m 6.929267,-47.366951 c -0.454845,-0.458209 -1.734603,-2.040026 -2.041871,-2.523807 -0.102853,-0.161864 -0.213722,-0.319918 -0.246482,-0.35123 -0.123338,-0.117891 -0.799672,-1.148362 -0.799672,-1.218389 0,-0.04021 -0.07219,-0.153995 -0.160445,-0.252863 -0.30645,-0.343355 -1.995727,-3.583185 -2.290386,-4.392686 -0.113978,-0.313123 -0.243889,-0.620553 -0.28871,-0.683177 -0.100594,-0.140577 -1.008509,-2.81216 -1.141508,-3.358954 -0.598087,-2.45883 -0.752087,-3.29409 -1.018214,-5.52235 -0.397469,-3.327985 -0.271948,-6.987959 0.382762,-11.160276 0.216723,-1.381091 0.364569,-1.505321 0.777111,-0.652995 1.386075,2.863622 4.145541,6.216058 7.041417,8.554501 2.680012,2.16413 5.338712,3.632252 8.995163,4.967076 2.051016,0.748743 5.068282,1.330784 8.010333,1.545223 2.67954,0.195305 6.066507,-0.09407 8.841368,-0.75541 0.407066,-0.09701 0.919449,-0.217129 1.138636,-0.266922 0.420805,-0.0956 2.211461,-0.689225 2.789633,-0.924808 0.187879,-0.07655 0.444065,-0.178102 0.569318,-0.22567 1.270581,-0.482553 4.186306,-2.06 5.671189,-3.06819 0.301049,-0.204404 0.575203,-0.343811 0.609211,-0.309796 0.103929,0.103897 -0.589717,0.889462 -1.628953,1.844877 -3.624971,3.332619 -8.611626,6.378739 -16.493189,10.074922 -1.616462,0.758068 -2.56482,1.19917 -3.302016,1.535844 -0.375748,0.171601 -1.1187,0.515453 -1.651008,0.764116 -0.532319,0.248661 -1.198411,0.556386 -1.480225,0.683831 -0.868732,0.392874 -7.303519,3.595576 -8.027332,3.995337 -1.4094,0.778416 -1.845977,1.027971 -2.748524,1.571102 -0.509694,0.306724 -0.962043,0.55768 -1.005239,0.55768 -0.04314,0 -0.269258,-0.192144 -0.502367,-0.426986 z M 67.593337,42.215494 C 67.563217,42.126744 67.402026,41.644219 67.23503,41.143222 66.30593,38.355907 64.914217,35.674916 63.28307,33.530156 62.527003,32.536016 60.621724,30.572879 59.784396,29.92523 59.502798,29.707418 59.169741,29.443046 59.044283,29.337735 58.534902,28.910148 57.271078,28.072766 56.200351,27.4534 55.575755,27.092106 54.960896,26.735815 54.833997,26.661642 54.495948,26.464063 51.300464,24.885479 50.504192,24.522699 50.128444,24.35151 49.616061,24.118126 49.365566,24.004069 47.491143,23.150604 45.405774,22.08686 44.583326,21.564654 42.461851,20.217649 41.350951,19.361982 39.935397,17.9846 38.981036,17.055983 37.753662,15.495399 37.047946,14.313268 34.800863,10.549202 34.222518,6.2956026 35.215632,0.83686501 c 0.106188,-0.5839477 0.196142,-0.8057073 0.337565,-0.8326046 0.142972,-0.027189 0.213302,0.072754 0.272216,0.3868294 0.04368,0.2329203 0.148782,0.556354 0.233518,0.71874169 0.08478,0.1623877 0.154387,0.3729221 0.154775,0.4678543 3.44e-4,0.094933 0.274077,0.7155401 0.60821,1.3791287 0.892789,1.7730697 1.968809,3.0930481 3.437167,4.2164491 0.821028,0.628143 2.736582,1.803699 2.939115,1.803699 0.07918,0 0.192699,0.04593 0.252194,0.102067 0.0595,0.05614 0.389981,0.215141 0.73441,0.35334 0.34444,0.138199 0.72873,0.294497 0.853972,0.347329 0.125253,0.05283 0.645532,0.2307324 1.156183,0.3953354 1.013394,0.326661 1.221521,0.295065 1.827956,-0.2775074 0.138293,-0.130563 0.276628,-0.237387 0.307419,-0.237387 0.03077,0 0.276316,-0.140906 0.545606,-0.313123 1.88643,-1.206399 4.116611,-2.246601 6.524364,-3.043093 2.69472,-0.891425 4.191255,-1.2469852 7.183119,-1.706641 2.386537,-0.3666535 8.160536,-0.3382666 10.582996,0.052029 1.523238,0.2454177 3.593405,0.668834 4.437134,0.907536 1.796036,0.508119 2.817552,0.840974 4.099064,1.33566 0.491876,0.18987 3.725478,1.76773 4.098611,1.999944 0.125005,0.0778 0.720736,0.465631 1.323847,0.861863 l 1.096569,0.7204214 0.497967,-0.136945 c 0.273873,-0.07532 0.659422,-0.207366 0.856758,-0.293434 0.197336,-0.08607 0.415791,-0.1564924 0.485464,-0.1564924 0.06972,0 0.215637,-0.0465 0.324375,-0.103327 0.108749,-0.05683 0.607619,-0.272408 1.108619,-0.479061 1.5088,-0.622358 3.601441,-1.950127 4.708963,-2.987807 0.692785,-0.649099 2.004671,-2.477866 2.421601,-3.3757248 0.27019,-0.581848 0.78081,-1.9296023 0.97052,-2.56162909 0.30934,-1.0306096 0.665611,0.1947553 0.994781,3.42148699 0.16802,1.6471159 0.16916,1.9593129 0.0123,3.3533529 -0.0952,0.845432 -0.25487,1.895817 -0.35485,2.33419 -0.18889,0.8281924 -0.754991,2.6305984 -0.937451,2.9847344 -0.0577,0.111884 -0.20015,0.407057 -0.31668,0.655939 -0.76025,1.623649 -2.269147,3.654359 -3.811309,5.129359 -1.317812,1.260418 -2.774625,2.341548 -4.940415,3.666383 -0.262964,0.160856 -3.676494,1.849377 -4.269729,2.11204 -1.993898,0.882833 -4.171373,1.936657 -5.237699,2.534866 -0.469682,0.263494 -1.033298,0.576772 -1.252485,0.696172 -0.817929,0.445563 -2.731073,1.744837 -3.566163,2.421889 -2.972434,2.409924 -5.063828,5.159201 -6.785004,8.919349 -0.193571,0.422884 -0.35195,0.835352 -0.35195,0.916596 0,0.08125 -0.04519,0.196394 -0.100486,0.255888 -0.05519,0.0595 -0.269624,0.620552 -0.476395,1.246798 -0.399987,1.211415 -0.520732,1.4466 -0.608996,1.186135 z M 55.514161,36.423771 c -2.860113,-0.389955 -5.755902,-2.611004 -6.969429,-5.345508 -0.648739,-1.461825 -1.057903,-3.23374 -1.057903,-4.581334 0,-0.788294 0.04024,-0.803179 0.993189,-0.367561 1.150116,0.525734 5.419941,2.648954 5.952443,2.95992 1.945914,1.136356 4.331279,2.976707 5.465417,4.216668 1.129169,1.234522 1.707943,1.9857 1.707943,2.216688 0,0.161387 -0.452758,0.341483 -1.821447,0.724529 -0.735626,0.205872 -3.282876,0.311216 -4.270213,0.176598 z m 21.0077,-5.69e-4 c -0.407066,-0.0509 -0.893822,-0.143679 -1.081701,-0.206186 -0.187868,-0.06251 -0.636204,-0.2072 -0.996298,-0.32154 -0.400041,-0.127023 -0.65471,-0.272047 -0.65471,-0.372822 0,-0.138804 0.465723,-0.852607 0.678809,-1.0404 0.0355,-0.03131 0.371283,-0.410685 0.746127,-0.843049 0.677626,-0.781614 2.533974,-2.449734 3.186511,-2.863412 0.187868,-0.119101 0.367205,-0.245865 0.398512,-0.281693 0.08779,-0.100454 1.58921,-1.070673 2.163402,-1.397993 1.081174,-0.616331 2.693397,-1.447346 3.871334,-1.995478 2.243124,-1.043789 2.792764,-1.273274 2.926602,-1.221912 0.177562,0.06813 0.194474,1.335898 0.02819,2.113353 -0.06025,0.28181 -0.156216,0.742955 -0.213216,1.024766 -0.257488,1.272999 -1.181918,3.143801 -2.066853,4.182734 -1.20322,1.412598 -2.508691,2.300933 -4.214881,2.868087 -0.919804,0.305753 -1.270257,0.360922 -2.549068,0.401285 -0.815456,0.02573 -1.815703,0.0052 -2.222758,-0.04574 z"
       id="path332" /></g></svg>
