<?xml version="1.0" encoding="UTF-8" standalone="no"?>
<!-- Created with Inkscape (http://www.inkscape.org/) -->

<svg
   width="512"
   height="512"
   viewBox="0 0 135.46666 135.46667"
   version="1.1"
   id="svg5"
   inkscape:export-filename="wazuh-logo.svg"
   inkscape:export-xdpi="96"
   inkscape:export-ydpi="96"
   xmlns:inkscape="http://www.inkscape.org/namespaces/inkscape"
   xmlns:sodipodi="http://sodipodi.sourceforge.net/DTD/sodipodi-0.dtd"
   xmlns="http://www.w3.org/2000/svg"
   xmlns:svg="http://www.w3.org/2000/svg">
  <sodipodi:namedview
     id="namedview7"
     pagecolor="#ffffff"
     bordercolor="#000000"
     borderopacity="0.25"
     inkscape:showpageshadow="2"
     inkscape:pageopacity="0.0"
     inkscape:pagecheckerboard="0"
     inkscape:deskcolor="#d1d1d1"
     inkscape:document-units="px"
     showgrid="false" />
  <defs
     id="defs2">
    <filter
       style="color-interpolation-filters:sRGB"
       inkscape:label="Drop Shadow"
       id="filter10220"
       x="0"
       y="-0.010644429"
       width="1"
       height="1.0106444">
      <feFlood
         flood-opacity="0.286275"
         flood-color="rgb(0,113,229)"
         result="flood"
         id="feFlood10210" />
      <feComposite
         in="flood"
         in2="SourceGraphic"
         operator="out"
         result="composite1"
         id="feComposite10212" />
      <feGaussianBlur
         in="composite1"
         stdDeviation="0"
         result="blur"
         id="feGaussianBlur10214" />
      <feOffset
         dx="0"
         dy="-1.4"
         result="offset"
         id="feOffset10216" />
      <feComposite
         in="offset"
         in2="SourceGraphic"
         operator="atop"
         result="composite2"
         id="feComposite10218" />
    </filter>
  </defs>
  <g
     inkscape:label="Layer 1"
     inkscape:groupmode="layer"
     id="layer1">
    <path
       style="fill:#00a9e5;fill-opacity:1;stroke:none;stroke-width:0.104115;filter:url(#filter10220)"
       d="m 35.304713,1.9712355 c -0.702361,3.0010048 -1.692079,5.8986955 -2.530102,8.8497865 -1.948098,6.85973 -3.80114,13.763501 -5.817538,20.614798 -0.978057,3.323355 -1.73435,6.723131 -2.878887,9.995054 -0.367839,1.051354 -0.383665,2.378822 -0.997215,3.331684 -1.221999,1.897603 -3.074624,3.509617 -4.553059,5.208568 -2.551238,2.931883 -5.024493,5.983393 -7.698836,8.801998 -1.1622793,1.224915 -2.247461,2.535412 -3.368198,3.799266 -0.362123,0.408444 -1.045305,0.943491 -0.969239,1.553814 0.114537,0.919129 1.809063,1.958406 2.47186,2.529478 2.374117,2.04555 4.645181,4.259871 6.955391,6.379447 9.276347,8.510788 18.543532,17.033757 27.815922,25.549233 0.759312,0.69726 1.026783,1.601078 1.448866,2.504488 0.816679,1.74768 1.548921,3.53419 2.301882,5.30988 2.601525,6.13446 5.366302,12.19709 7.990837,18.32426 0.927666,2.1656 1.724667,4.47071 2.805278,6.55926 0.310992,0.60074 0.490799,1.71894 1.187121,2.00734 0.999089,0.41437 2.764049,0.075 3.84289,0.075 h 9.058017 c 0.955777,0 3.292746,0.42375 3.973242,-0.34358 0.565449,-0.63719 0.824696,-1.7887 1.146204,-2.57165 0.598037,-1.45552 1.193367,-2.92147 1.810874,-4.37283 2.480127,-5.82733 4.926937,-11.65569 7.365938,-17.49134 0.794711,-1.90115 1.628569,-3.80833 2.377469,-5.72634 0.41823,-1.07113 0.78014,-2.39434 1.51508,-3.299828 0.82585,-1.01752 2.04295,-1.82805 3.02163,-2.6995 1.92384,-1.712903 3.83665,-3.460263 5.734979,-5.201799 6.364141,-5.838985 12.727661,-11.688902 19.198411,-17.411695 2.53417,-2.241287 5.0069,-4.557953 7.52128,-6.823811 0.78919,-0.711731 2.57893,-1.861474 2.91523,-2.877846 0.17699,-0.532029 -0.45186,-1.014915 -0.76317,-1.353393 -1.02345,-1.111117 -2.00317,-2.264088 -3.04224,-3.360941 -4.26039,-4.497462 -8.31568,-9.192013 -12.52714,-13.734349 -1.19212,-1.285822 -1.46177,-3.333246 -1.88656,-4.97712 -0.70382,-2.721361 -1.59088,-5.408885 -2.33322,-8.120981 C 105.55432,22.605543 102.23524,12.36686 99.439639,1.9712755 98.51666,2.2818291 98.16079,3.4373523 97.80441,4.2618083 97.0199,6.07691 96.15345,7.911211 95.26535,9.675796 92.12159,15.9226 89.31278,22.349628 86.22014,28.624751 c -0.799187,1.621594 -1.525391,3.277233 -2.337176,4.893412 -0.302455,0.602098 -0.505063,1.485098 -1.117572,1.864702 -0.540983,0.335251 -1.356308,0.217601 -1.962362,0.217601 H 76.430194 60.084117 55.398935 c -0.689034,0 -1.513938,0.141596 -2.074702,-0.343372 C 52.098902,34.19737 51.573641,31.984507 50.771434,30.602899 48.176156,26.133444 46.110719,21.364763 43.581971,16.8597 41.517055,13.181208 39.758446,9.322514 37.732886,5.6152653 37.171498,4.5878263 36.585225,2.2191701 35.304713,1.9712355 M 109.12235,64.752665 c -0.27487,0.847706 -1.24938,1.48489 -1.87512,2.088446 -1.57942,1.523308 -3.17374,3.033186 -4.744,4.566386 -5.80171,5.664592 -11.7066,11.218094 -17.506547,16.883727 -1.298315,1.268227 -2.611207,2.521149 -3.913063,3.785731 -1.310185,1.272704 -2.483042,2.501994 -4.445196,2.449724 -3.306905,-0.0881 -5.113615,-4.584293 -6.703453,-6.972798 -0.404279,-0.607408 -1.42138,-2.866915 -2.235457,-2.870038 -0.300164,-0.0011 -0.508706,0.413962 -0.656446,0.624587 -0.510268,0.727765 -0.990655,1.496655 -1.473853,2.245451 -1.516542,2.350399 -3.412478,6.876288 -6.630365,6.972898 -2.029516,0.0609 -2.981233,-1.0324 -4.378979,-2.319472 -1.192014,-1.097686 -2.413076,-2.164345 -3.577708,-3.291392 -5.736224,-5.551003 -11.621332,-11.013091 -17.553292,-16.354614 -1.69208,-1.523621 -3.308363,-3.134699 -4.995757,-4.664775 -0.767121,-0.695593 -1.836279,-1.357661 -2.082303,-2.415055 1.63138,-0.153882 3.355319,0 4.997527,0 0.805122,0 1.836487,-0.168771 2.602878,0.107135 1.094771,0.39418 2.113434,1.599104 2.946979,2.383091 1.338296,1.258752 2.802988,2.380697 4.153257,3.626955 3.636951,3.356464 7.440381,6.558525 11.164996,9.818578 1.931648,1.690726 3.961997,4.09537 6.201722,5.349228 0.749109,0.419376 1.265416,-0.917879 1.593274,-1.398995 1.187017,-1.741846 2.093131,-3.969806 3.541997,-5.50186 0.517036,-0.546813 1.258232,-0.432703 1.944663,-0.432703 1.719253,0 4.195215,-0.457274 5.829302,0.076 0.643744,0.210104 1.026055,0.968479 1.399308,1.485723 0.964523,1.336734 1.854603,2.729795 2.810692,4.072464 0.328588,0.461438 0.865822,1.779432 1.529452,1.791405 0.700903,0.0127 1.590983,-1.140998 2.070329,-1.563081 1.719462,-1.513834 3.387386,-3.084827 5.100601,-4.606991 4.250292,-3.776568 8.454882,-7.604361 12.691112,-11.398005 1.19587,-1.070928 2.33937,-2.203597 3.54918,-3.258387 0.5035,-0.439054 1.02981,-1.058435 1.66855,-1.29665 0.63375,-0.236341 1.51831,-0.08683 2.18642,-0.08683 1.53466,0 3.29004,-0.234155 4.7893,0.104115 z"
       id="path9452" />
  </g>
</svg>
