<?xml version="1.0" encoding="UTF-8" standalone="no"?>
<!-- Created with Inkscape (http://www.inkscape.org/) -->

<svg
   version="1.1"
   id="svg203"
   width="409.60001"
   height="409.60001"
   viewBox="0 0 409.60001 409.60001"
   sodipodi:docname="final.png"
   xmlns:inkscape="http://www.inkscape.org/namespaces/inkscape"
   xmlns:sodipodi="http://sodipodi.sourceforge.net/DTD/sodipodi-0.dtd"
   xmlns="http://www.w3.org/2000/svg"
   xmlns:svg="http://www.w3.org/2000/svg">
  <defs
     id="defs207" />
  <sodipodi:namedview
     id="namedview205"
     pagecolor="#ffffff"
     bordercolor="#000000"
     borderopacity="0.25"
     inkscape:showpageshadow="2"
     inkscape:pageopacity="0.0"
     inkscape:pagecheckerboard="0"
     inkscape:deskcolor="#d1d1d1"
     showgrid="false" />
  <g
     inkscape:groupmode="layer"
     inkscape:label="Image"
     id="g209">
    <path
       style="fill:#d40000;stroke-width:0.32"
       d="m 110.12291,267.75292 c -14.854616,-1.71941 -28.25279,-11.4621 -35.359631,-25.71232 -6.635489,-13.30508 -8.75466,-31.10704 -5.092852,-42.78211 4.120916,-13.13886 15.898311,-22.41022 33.012683,-25.98814 7.60321,-1.58952 18.10572,-2.2149 22.95684,-1.36699 9.14888,1.59909 19.04546,5.93792 29.76,13.0473 9.99048,6.62893 16.5905,12.25386 30.56,26.04503 13.14668,12.97885 17.59691,16.71868 25.92001,21.78232 13.6304,8.29254 27.56927,10.34861 39.55724,5.83493 5.60008,-2.10853 10.30489,-5.26942 15.16276,-10.187 5.8799,-5.95219 10.84759,-14.10818 12.38318,-20.33082 1.00952,-4.09087 -0.4395,-8.08691 -4.35673,-12.01475 -2.80166,-2.80926 -5.58097,-4.32396 -9.95424,-5.42499 -3.17776,-0.80004 -12.05318,-1.1868 -15.99221,-0.69689 -2.19929,0.27353 -2.80144,0.20557 -7.2,-0.81265 -2.64,-0.61113 -4.944,-1.24807 -5.12,-1.4154 -0.4302,-0.40904 3.32838,-3.9292 5.69181,-5.33077 0.99584,-0.59055 3.00256,-1.48863 4.4594,-1.99572 2.23091,-0.77653 3.15495,-0.92266 5.85718,-0.92626 6.7019,-0.009 13.96642,1.40617 22.07161,4.2995 1.46759,0.52389 -0.69487,-0.83894 -4.073,-2.5669 -6.61399,-3.38314 -14.14149,-5.72202 -21.5352,-6.69126 -4.19153,-0.54946 -9.70873,-0.63685 -11.30493,-0.17907 -0.97423,0.27941 -1.48002,0.10063 -5.71038,-2.01832 l -4.64148,-2.32488 1.22605,-1.07648 c 1.44659,-1.27013 4.94193,-2.94307 7.63894,-3.65615 7.36762,-1.94798 18.59007,-1.12122 30.20892,2.2255 4.44184,1.27944 4.10367,1.3706 5.1496,-1.38823 0.84272,-2.22282 0.84789,-6.06835 0.0128,-9.55127 -1.109,-4.62554 -4.54924,-11.62741 -7.29138,-14.84003 -0.572,-0.67014 -1.04,-1.28317 -1.04,-1.3623 0,-0.52292 5.70049,-1.03428 11.52,-1.0334 5.68372,9.6e-4 7.00883,0.10028 9.92,0.74426 17.36413,3.84115 34.61613,15.84184 48.38154,33.65474 7.31994,9.47224 12.76055,20.72684 12.73357,26.34093 -0.0102,2.1524 -0.49667,1.75213 -2.64173,-2.17433 -9.32991,-17.07816 -24.97902,-33.07268 -42.25956,-43.19232 -10.36799,-6.07159 -20.42915,-8.875 -24.7738,-6.90289 -1.14188,0.51831 -1.36,0.765 -1.36,1.53811 0,0.50643 0.43186,1.57278 0.9597,2.36966 0.95781,1.44603 0.96424,1.44931 3.2665,1.66328 8.14918,0.75738 17.25903,4.02288 24.40482,8.74809 4.3541,2.87917 10.77458,9.3087 13.67021,13.68947 2.72121,4.11688 4.82456,8.35542 6.17026,12.43384 1.6847,5.10589 1.73721,5.90505 0.19104,2.9077 -2.02669,-3.92889 -5.10251,-7.81386 -10.40517,-13.14247 -8.57081,-8.61275 -16.7632,-13.83907 -25.35171,-16.17306 -1.84087,-0.50027 -3.51002,-0.68956 -6.29125,-0.71347 -4.29293,-0.0369 -4.6944,0.16825 -4.6944,2.39876 0,1.17348 0.0303,1.20163 2.32,2.15867 13.67956,5.71761 24.15372,13.31476 31.00369,22.4877 2.97541,3.98444 3.08596,4.00825 -2.48389,-0.53519 -6.584,-5.37071 -12.62481,-9.59897 -18.24595,-12.77122 -3.59189,-2.02707 -9.02326,-4.24884 -11.07383,-4.52991 -1.25331,-0.17178 -1.42067,-0.11394 -1.74783,0.6041 -0.34,0.74622 -0.15585,1.00376 3.05628,4.27431 7.58883,7.72683 12.10645,14.89824 14.18997,22.52557 0.64131,2.34771 0.73889,3.42842 0.72182,7.99468 -0.018,4.81679 -0.097,5.53265 -0.89987,8.16 -3.92146,12.83198 -16.81714,25.78177 -32.96613,33.10446 -11.02058,4.99723 -16.68507,6.41763 -25.57742,6.41365 -15.43209,-0.007 -31.00935,-6.86879 -48.37685,-21.31031 -4.52007,-3.75856 -15.41758,-14.46006 -19.6818,-19.3278 -6.38258,-7.28592 -19.51264,-17.03221 -29.40024,-21.82346 -4.87051,-2.36011 -11.27034,-4.49538 -15.66322,-5.22594 -4.35029,-0.72349 -11.25887,-0.52128 -14.83087,0.43409 -10.090128,2.6987 -18.967655,10.36206 -23.698394,20.4572 -1.60943,3.43443 -1.719635,4.39008 -1.060726,9.19811 2.653577,19.36311 10.096733,31.78981 21.63521,36.12103 3.51882,1.32087 6.80714,1.86124 11.34004,1.86354 8.70223,0.004 18.00613,-2.59472 29.12,-8.13489 7.26659,-3.62233 15.52525,-8.72264 20.32,-12.54903 3.03678,-2.42346 3.11489,-2.42327 1.76418,0.004 -7.00488,12.5904 -15.49389,21.8464 -25.51732,27.82284 -9.27768,5.53179 -20.41755,8.01523 -30.6439,6.83154 z m 96.96375,-49.6064 c -0.38617,-1.43116 -0.77902,-3.34713 -0.873,-4.2577 l -0.17088,-1.65558 3.53659,-2.30604 3.53659,-2.30604 2.502,-4.02132 c 7.58419,-12.18964 16.52921,-21.35658 25.862,-26.50358 l 1.6,-0.8824 -1.20168,1.02216 c -3.57935,3.04461 -11.66064,14.53251 -13.324,18.94061 l -0.32573,0.86324 1.6657,-0.18631 c 2.28737,-0.25584 2.83783,-0.59912 1.39481,-0.86983 l -1.15565,-0.2168 1.35327,-2.0601 c 0.98284,-1.49619 1.54726,-2.06193 2.06193,-2.06677 0.86869,-0.008 7.15995,1.19528 7.37551,1.41085 0.30953,0.30952 -3.89319,4.35164 -6.12088,5.88698 -2.95556,2.03699 -5.18523,3.14365 -10.80763,5.36419 -6.485,2.56122 -9.48441,4.74725 -12.26833,8.9414 -1.17918,1.77651 -3.36732,6.2148 -3.36732,6.83007 0,0.17715 -0.12852,0.40151 -0.28559,0.49859 -0.15707,0.0971 -0.60154,-0.99445 -0.98771,-2.42562 z m 9.9641,0.92169 -3.62918,-0.309 1.81639,-0.73824 c 3.83925,-1.56038 6.07108,-3.77925 8.35611,-8.30756 l 1.45327,-2.88 2.08444,-0.38502 c 3.20959,-0.59283 4.98485,-1.78511 8.42817,-5.66044 4.37418,-4.92299 10.73975,-10.37056 7.56825,-6.47682 -0.79052,0.97055 -2.04683,2.7906 -2.79178,4.04455 -1.81064,3.04776 -1.93127,4.4334 -0.68926,7.91774 l 0.94104,2.64002 -1.31413,0.33095 c -6.20291,1.56211 -13.38606,5.47311 -16.97399,9.2418 -0.51693,0.54297 -1.09293,0.96557 -1.28,0.93912 -0.18708,-0.0265 -1.97327,-0.18715 -3.96933,-0.3571 z m -25.63923,-19.80063 c -0.20686,-0.9428 -0.45819,-3.02838 -0.5585,-4.63462 l -0.18239,-2.92044 1.24466,-0.40394 c 5.39021,-1.74931 9.74233,-5.57361 14.65609,-12.87862 1.30519,-1.94035 2.75175,-3.59891 4.20865,-4.82543 5.81383,-4.89447 18.94632,-13.27789 23.44651,-14.96763 1.11555,-0.41886 0.98341,-0.29784 -4.26467,3.90588 -7.17164,5.74448 -13.27771,12.22244 -14.07349,14.93062 -0.20356,0.69278 -0.13513,0.72014 1.81,0.72353 1.11186,0.002 2.59757,0.0737 3.30157,0.15954 1.27877,0.15587 1.27823,0.1552 -0.56,-0.69293 -1.012,-0.46692 -1.84,-0.94012 -1.84,-1.05157 0,-0.11144 0.71423,-0.90612 1.58719,-1.76595 l 1.58719,-1.56333 3.85281,1.06717 c 2.11904,0.58694 3.85281,1.17018 3.85281,1.29609 0,0.12592 -1.93879,1.68459 -4.30841,3.46373 l -4.3084,3.23479 -6.0116,1.58938 c -3.30638,0.87416 -6.84012,1.87659 -7.85277,2.22763 -6.29275,2.18144 -10.14528,5.68024 -14.08866,12.79506 l -1.12247,2.02522 z m 12.46842,1.43852 c -4.06833,-0.61102 -7.19258,-1.52692 -6.88825,-2.01933 0.0812,-0.13135 1.12424,-0.32309 2.31792,-0.4261 2.90457,-0.25065 4.42735,-0.8406 6.77164,-2.62345 2.6047,-1.98088 3.43344,-3.13709 4.11222,-5.73707 l 0.56648,-2.16982 2.08,0.13875 c 1.144,0.0763 2.44,0.0387 2.88,-0.0837 0.44,-0.12235 3.52858,-2.28046 6.86351,-4.7958 6.38711,-4.8174 11.30622,-8.17311 11.57983,-7.8995 0.14497,0.14497 -1.97541,2.77996 -6.61731,8.22332 -0.99768,1.16994 -1.56215,2.16299 -1.68365,2.962 -0.2523,1.65903 -4.97254,6.83705 -6.62238,7.26465 -0.616,0.15965 -1.696,0.44013 -2.4,0.62328 -0.704,0.18316 -3.48535,1.77685 -6.18077,3.54154 -2.69542,1.7647 -5.14342,3.18893 -5.44,3.16496 -0.29658,-0.024 -0.89924,-0.0977 -1.33924,-0.16373 z m 40.49287,-3.91533 c 0.98405,-1.42855 1.90401,-2.59737 2.04434,-2.59737 0.14033,0 2.59217,-0.43956 5.44853,-0.97681 2.85636,-0.53725 5.3175,-0.93325 5.46918,-0.88 0.22922,0.0805 -12.37462,6.15676 -14.18308,6.83764 -0.35784,0.13473 0.0942,-0.74761 1.22103,-2.38346 z m -11.98437,-16.85993 c 1.95787,-1.95787 2.18839,-2.09551 3.34975,-2 l 1.24719,0.10256 -3.13152,2 c -1.72234,1.1 -3.22973,2 -3.34976,2 -0.12002,0 0.72793,-0.94615 1.88434,-2.10256 z m 11.07657,-1.23404 c 0.50869,-0.68712 3.14807,-1.71693 3.49957,-1.36543 0.13182,0.13182 -3.49472,2.14203 -3.86437,2.14203 -0.11558,0 0.0486,-0.34947 0.3648,-0.7766 z"
       id="path321" />
  </g>
</svg>
