<?xml version="1.0" encoding="UTF-8" standalone="no"?>
<!-- Created with Inkscape (http://www.inkscape.org/) -->

<svg
   width="512"
   height="290"
   viewBox="0 0 135.46666 76.729169"
   version="1.1"
   id="svg5"
   xml:space="preserve"
   sodipodi:docname="logo.svg"
   inkscape:version="1.2.2 (b0a8486541, 2022-12-01)"
   xmlns:inkscape="http://www.inkscape.org/namespaces/inkscape"
   xmlns:sodipodi="http://sodipodi.sourceforge.net/DTD/sodipodi-0.dtd"
   xmlns="http://www.w3.org/2000/svg"
   xmlns:svg="http://www.w3.org/2000/svg"><sodipodi:namedview
     id="namedview7"
     pagecolor="#ffffff"
     bordercolor="#000000"
     borderopacity="0.25"
     inkscape:showpageshadow="2"
     inkscape:pageopacity="0.0"
     inkscape:pagecheckerboard="0"
     inkscape:deskcolor="#d1d1d1"
     inkscape:document-units="px"
     showgrid="false"
     inkscape:zoom="1.5332031"
     inkscape:cx="255.67389"
     inkscape:cy="257.95669"
     inkscape:window-width="1920"
     inkscape:window-height="1011"
     inkscape:window-x="0"
     inkscape:window-y="0"
     inkscape:window-maximized="1"
     inkscape:current-layer="layer1" /><defs
     id="defs2" /><g
     inkscape:label="Layer 1"
     inkscape:groupmode="layer"
     id="layer1"><path
       style="fill:#800080;stroke-width:0.0704889;fill-opacity:1"
       d="M 13.885851,52.113485 C 11.342846,51.918684 8.6556719,51.029395 6.7973149,49.767616 3.9519519,47.835684 1.7317319,43.58175 0.9795469,38.620797 c -0.212439,-1.401123 -0.265936,-4.113195 -0.110069,-5.580062 0.269773,-2.538841 0.847202,-4.816011 1.766635,-6.966964 1.550895,-3.628219 4.161039,-6.599719 7.0864924,-8.067568 1.4659537,-0.735544 3.5060967,-1.452325 5.0098187,-1.760144 2.078674,-0.425515 4.263852,-0.50786 6.003503,-0.226235 3.801811,0.615461 7.214201,2.02464 10.732506,4.432089 1.5394,1.053357 2.870823,2.131299 6.387953,5.171792 1.617562,1.398352 8.998913,7.237551 11.939162,9.444766 4.514103,3.388692 7.057115,4.826628 10.626066,6.008464 2.06322,0.683223 3.087419,0.853574 5.128205,0.852955 3.332717,-10e-4 5.894466,-0.572257 8.552052,-1.907029 2.892477,-1.452744 4.952135,-3.584007 6.395889,-6.618244 1.060851,-2.229521 1.490615,-3.888431 1.497396,-5.78009 0.0029,-0.810434 -0.01862,-0.982821 -0.186295,-1.491361 -0.529034,-1.60458 -1.736889,-2.504883 -3.7701,-2.810143 -1.049523,-0.157572 -3.369976,-0.26335 -4.699918,-0.214247 -0.659071,0.02433 -1.934998,0.108835 -2.835388,0.187781 l -1.637078,0.143538 -1.423385,-0.72734 c -0.782861,-0.400038 -1.456455,-0.781108 -1.496875,-0.846824 -0.179225,-0.291386 1.311466,-1.609788 2.207024,-1.951943 1.188643,-0.454131 2.647439,-0.699668 4.516057,-0.760118 1.49581,-0.04839 2.490049,0.02877 4.264579,0.330959 0.992498,0.169015 2.644603,0.512365 3.24249,0.673873 0.243511,0.06578 -0.149176,-0.22118 -0.775378,-0.566613 -2.055534,-1.1339 -4.768173,-2.17703 -6.894894,-2.651395 -1.504049,-0.335475 -4.811397,-0.529246 -6.00427,-0.351775 -0.463592,0.06897 -0.649894,0.06969 -0.859964,0.0033 -0.666738,-0.210699 -3.222571,-1.593897 -3.361992,-1.819486 -0.126553,-0.204766 2.428742,-1.287931 3.869206,-1.640119 0.709406,-0.173447 2.930934,-0.296637 4.299823,-0.238436 1.938501,0.08242 3.061509,0.29693 5.498135,1.050233 1.53584,0.474816 1.852885,0.499454 2.162472,0.168043 0.299395,-0.320503 1.138727,-2.054679 1.320497,-2.728327 0.206871,-0.766667 0.340053,-1.9009275 0.400335,-3.4094185 0.02894,-0.724238 0.08273,-1.29415 0.12755,-1.35168 0.140667,-0.180531 3.365408,-1.152209 6.069059,-1.828726 6.531637,-1.634369 13.044087,-2.6918731 19.560674,-3.1762951 3.02394,-0.22479 3.95025,-0.260868 7.69297,-0.299629 4.9202,-0.05095 8.09573,0.07429 12.07917,0.476417 2.53604,0.256011 6.90128,0.846271 7.25291,0.9807261 0.0816,0.03122 -2.56363,0.05469 -5.87838,0.05216 -5.91922,-0.0045 -8.2451,0.0466 -12.22982,0.268724 -13.67378,0.762249 -24.172737,2.825726 -30.494028,5.99333 -0.857998,0.429943 -0.906332,0.465576 -0.973579,0.717727 -0.03892,0.145928 -0.243673,0.9155855 -0.455013,1.7103475 -0.258264,0.971218 -0.581357,1.946148 -0.985371,2.97337 -0.330607,0.840591 -0.610928,1.573693 -0.622925,1.629116 -0.012,0.05542 0.406411,0.599687 0.929791,1.209476 1.175332,1.369379 1.572544,1.901057 2.12001,2.83769 0.948189,1.622221 1.586473,3.468758 1.944127,5.624352 0.16094,0.969942 0.182207,3.806255 0.03594,4.793246 -0.525565,3.546579 -1.836469,6.239649 -4.596032,9.441915 -1.521841,1.765976 -3.163084,3.079498 -5.143822,4.116713 -2.495152,1.306586 -4.842658,2.103553 -7.22445,2.452668 -1.065938,0.156242 -4.533911,0.180164 -5.674357,0.03914 -1.735441,-0.214593 -4.951737,-0.988271 -6.344553,-1.526178 -0.810893,-0.313164 -2.133391,-0.975153 -3.594381,-1.799198 -0.600918,-0.338937 -1.584238,-0.878187 -2.185156,-1.198334 -2.11786,-1.128319 -3.054482,-1.815242 -7.401335,-5.428168 -1.570141,-1.305037 -3.631941,-3.002709 -4.581779,-3.772605 -2.190523,-1.775539 -3.76646,-3.098253 -6.164801,-5.174236 -3.53583,-3.060584 -4.454999,-3.728282 -6.558447,-4.764154 -5.98757,-2.948664 -9.076298,-3.266492 -13.040447,-1.341855 -2.965814,1.439935 -5.7433861,4.133994 -7.1496591,6.934693 -1.431757,2.851452 -1.733517,7.595008 -0.739651,11.627035 1.336262,5.421094 4.9417071,8.221951 10.9908221,8.538119 3.792291,0.19821 7.324125,-0.582549 11.409654,-2.522256 2.59839,-1.233651 4.878672,-2.686526 7.790246,-4.963533 1.31833,-1.031006 1.764653,-1.349377 1.817542,-1.296489 0.128582,0.128583 -1.182084,1.664904 -2.595848,3.042772 -2.307778,2.249183 -4.057935,3.619782 -6.460332,5.05927 -5.082141,3.04516 -10.03878,4.417922 -14.670685,4.063106 z M 54.420775,33.774684 c -0.203154,-0.671487 -0.526713,-2.282442 -0.481888,-2.399252 0.01936,-0.05044 0.490704,-0.406302 1.047439,-0.7908 0.556736,-0.384498 1.171689,-0.858896 1.366564,-1.054218 0.194875,-0.195322 0.749962,-0.941951 1.233527,-1.659176 2.364857,-3.50756 4.497453,-5.945519 7.117535,-8.136685 0.987832,-0.82612 2.688751,-1.956553 2.790641,-1.854663 0.05203,0.05203 -0.123919,0.28468 -1.159084,1.532679 -1.873153,2.258281 -3.406983,4.543948 -3.683505,5.489052 -0.08202,0.280326 -0.07816,0.316882 0.04277,0.405311 0.16002,0.117009 0.497554,0.125364 0.800347,0.01981 0.254885,-0.08885 0.263714,-0.112116 0.107898,-0.28429 -0.160676,-0.177544 -0.09163,-0.368004 0.341359,-0.941586 0.524841,-0.695262 0.608561,-0.724932 1.529757,-0.542134 0.40993,0.08134 0.978593,0.200962 1.263696,0.265816 l 0.518368,0.117916 -0.906057,0.913128 c -1.292724,1.302811 -1.465479,1.411253 -5.875525,3.68821 -1.337527,0.69058 -2.680982,1.389249 -2.985456,1.552596 l -0.553588,0.296996 -0.771328,1.364634 c -0.835003,1.47729 -1.477397,2.527702 -1.545851,2.527702 -0.02365,0 -0.112583,-0.22997 -0.19762,-0.511045 z M 57.95905,34.0466 c -0.356186,-0.04455 -0.666505,-0.09989 -0.689597,-0.122983 -0.02309,-0.02309 0.186926,-0.17798 0.466707,-0.344195 0.992056,-0.58937 2.135202,-1.852551 2.87942,-3.181771 0.585367,-1.045504 0.636344,-1.098492 1.109905,-1.153704 1.012837,-0.118085 1.803166,-0.688429 4.513225,-3.256986 1.955098,-1.853015 1.919198,-1.820552 1.919198,-1.735494 0,0.03962 -0.289909,0.576859 -0.644243,1.193877 -0.861684,1.500485 -0.93248,1.708375 -0.886131,2.602116 0.02692,0.519055 0.08621,0.841128 0.224899,1.221658 0.103589,0.284222 0.172882,0.557061 0.153984,0.606307 -0.0189,0.04925 -0.418771,0.22134 -0.888607,0.382432 -2.018901,0.692214 -4.17111,1.955683 -5.550463,3.258436 -0.327147,0.308979 -0.601639,0.504742 -0.775378,0.552988 -0.331277,0.09199 -0.980271,0.08396 -1.832919,-0.02268 z m 64.51057,-4.761934 c -0.23262,-0.108555 -1.2318,-0.586033 -2.2204,-1.061062 -4.47755,-2.151478 -7.82687,-3.624304 -11.94787,-5.253937 -9.392037,-3.714038 -17.848397,-5.981324 -24.248193,-6.501329 l -0.6344,-0.05155 -0.02293,-0.240343 c -0.02108,-0.220951 0.274758,-2.181393 0.400884,-2.656613 0.07284,-0.274462 0.169575,-0.279993 1.756894,-0.100465 1.701958,0.192493 3.812278,0.552318 5.409448,0.922349 8.703412,2.016399 19.869797,7.173749 30.413987,14.047125 1.80513,1.176697 1.95136,1.296591 1.09258,0.895823 z M 51.980704,26.600015 c -0.581533,-0.149724 -1.104913,-0.28331 -1.163066,-0.29686 -0.05815,-0.01355 0.245987,-0.142987 0.675869,-0.28764 2.306939,-0.776272 3.558474,-1.860694 4.010096,-3.474642 l 0.120712,-0.431386 0.747563,-0.05008 c 1.171401,-0.07847 1.028692,-0.0011 5.090865,-2.758621 2.915358,-1.979004 2.75491,-1.877483 2.547404,-1.611826 -0.388524,0.497402 -5.04593,5.611948 -5.520714,6.062589 -0.656776,0.62338 -1.163551,0.985389 -2.571958,1.837255 -1.532892,0.92716 -2.282677,1.297078 -2.613695,1.289509 -0.146158,-0.0033 -0.741542,-0.128579 -1.323076,-0.278302 z m -3.703071,-0.0066 c -0.0013,-0.05321 -0.09308,-0.762861 -0.2039,-1.577008 -0.110823,-0.814147 -0.189994,-1.499486 -0.175936,-1.522977 0.01406,-0.02349 0.291586,-0.143115 0.616728,-0.265831 1.525052,-0.575593 3.166807,-2.049182 5.389156,-4.837149 1.539151,-1.930884 2.24157,-2.545302 4.77347,-4.175439 2.110335,-1.358716 5.56963,-3.391237 5.642873,-3.315489 0.01016,0.01051 -0.238567,0.241144 -0.552725,0.512526 -1.811755,1.565065 -4.435378,4.228565 -5.509035,5.59277 -0.420717,0.534567 -0.604626,0.879038 -0.516408,0.967256 0.03406,0.03406 0.912494,0.140433 1.604939,0.194352 0.37903,0.02951 0.383754,0.02763 0.211503,-0.08436 -0.0969,-0.063 -0.286539,-0.214574 -0.421415,-0.336828 l -0.245226,-0.222281 0.174702,-0.243053 c 0.09609,-0.133679 0.325018,-0.409398 0.508735,-0.61271 l 0.334033,-0.369656 0.758545,0.227172 c 1.088372,0.325948 1.851124,0.628184 1.851124,0.733497 0,0.08292 -0.554236,0.591196 -2.063364,1.892274 -0.301319,0.259779 -0.618519,0.517129 -0.704889,0.571889 -0.08637,0.05476 -0.979149,0.326874 -1.983955,0.604696 -1.983644,0.548466 -3.692543,1.099568 -4.403536,1.420096 -1.454499,0.655713 -2.974413,2.081549 -4.4826,4.205143 -0.458294,0.645297 -0.598996,0.794937 -0.602819,0.641112 z m 20.162231,-0.453819 c 0,-0.152451 1.008269,-1.550148 1.1874,-1.646017 0.198088,-0.106013 3.310349,-0.524158 3.388141,-0.45521 0.04842,0.04291 -4.406805,2.141105 -4.546345,2.141105 -0.01606,0 -0.0292,-0.01795 -0.0292,-0.03988 z M 129.37753,16.094498 c -9.49895,-2.412828 -18.49401,-3.820704 -27.91361,-4.368935 -2.106015,-0.122573 -7.970967,-0.165611 -9.974187,-0.07319 -2.70169,0.124643 -4.56093,0.297172 -6.257431,0.58066 -0.475765,0.0795 -0.911915,0.126555 -0.969222,0.104565 -0.159347,-0.06115 -0.12779,-0.346569 0.153017,-1.383696 0.311357,-1.1499875 0.457635,-1.5083265 0.672316,-1.6469855 0.182665,-0.117977 1.54673,-0.338078 3.08834,-0.498324 1.8669,-0.194058 4.79047,-0.270363 8.77587,-0.229049 4.762997,0.04937 5.895267,0.122874 9.516007,0.617718 7.60233,1.0390045 14.59076,2.8966365 21.54136,5.7260265 2.26478,0.921929 4.20449,1.808448 3.94038,1.800903 -0.0582,-0.0017 -1.21593,-0.285023 -2.57284,-0.629691 z"
       id="path293" /></g></svg>
