<?xml version="1.0" encoding="UTF-8" standalone="no"?>
<!-- Created with Inkscape (http://www.inkscape.org/) -->

<svg
   version="1.1"
   id="svg2"
   width="3264"
   height="3264"
   viewBox="0 0 3264 3264"
   sodipodi:docname="ajc.png"
   xmlns:inkscape="http://www.inkscape.org/namespaces/inkscape"
   xmlns:sodipodi="http://sodipodi.sourceforge.net/DTD/sodipodi-0.dtd"
   xmlns="http://www.w3.org/2000/svg"
   xmlns:svg="http://www.w3.org/2000/svg">
  <defs
     id="defs6" />
  <sodipodi:namedview
     id="namedview4"
     pagecolor="#ffffff"
     bordercolor="#000000"
     borderopacity="0.25"
     inkscape:showpageshadow="2"
     inkscape:pageopacity="0.0"
     inkscape:pagecheckerboard="0"
     inkscape:deskcolor="#d1d1d1"
     showgrid="false" />
  <g
     inkscape:groupmode="layer"
     inkscape:label="Image"
     id="g8">
    <path
       style="fill:#ff0000"
       d="m 33.94026,3222.6965 c 0.3586,-24.0625 1.10944,-48.25 1.66853,-53.75 0.5591,-5.5 1.48122,-17.425 2.04917,-26.5 1.45663,-23.2751 5.17312,-63.6287 6.49291,-70.5 0.31693,-1.65 0.98481,-6.6 1.48418,-11 2.8357,-24.9853 11.80739,-80.4696 16.97831,-105 0.46375,-2.2 1.51855,-7.375 2.344,-11.5 1.57673,-7.8794 3.79018,-18.1094 6.27471,-29 0.81559,-3.575 1.9093,-8.525 2.43047,-11 1.22236,-5.8048 3.84596,-16.6585 4.95538,-20.5 0.47651,-1.65 1.61031,-5.925 2.51955,-9.5 1.74949,-6.8787 3.62515,-13.9626 6.08988,-23 0.825,-3.025 2.175,-7.975 3,-11 2.378,-8.7193 4.43919,-15.887 7.0454,-24.5 1.3314,-4.4 3.14086,-10.475 4.02102,-13.5 0.88016,-3.025 1.93018,-6.4 2.33338,-7.5 0.40319,-1.1 4.18585,-12.575 8.4059,-25.5 4.22004,-12.925 8.05816,-24.4 8.52914,-25.5 0.47099,-1.1 1.84425,-4.925 3.05171,-8.5 1.20746,-3.575 2.55295,-7.4 2.98999,-8.5 0.43703,-1.1 2.70653,-7.175 5.04331,-13.5 2.33679,-6.325 5.08526,-13.3878 6.1077,-15.6951 1.02245,-2.3074 1.859,-4.676 1.859,-5.2636 0,-0.5876 0.43809,-1.8498 0.97353,-2.8049 0.53544,-0.955 3.03114,-6.9114 5.54598,-13.2364 2.51485,-6.325 4.98431,-12.4 5.48769,-13.5 0.50338,-1.1 2.67958,-6.275 4.836,-11.5 4.70396,-11.3977 14.80254,-34.2549 20.32336,-46 2.19749,-4.675 5.41764,-11.65 7.15588,-15.5 3.44482,-7.6298 25.94408,-52.4327 32.39085,-64.5 8.94862,-16.7503 15.01258,-27.7511 19.38587,-35.1682 1.59546,-2.7059 2.90084,-5.1046 2.90084,-5.3305 0,-0.3839 12.8596,-22.2088 15.02584,-25.5013 0.54279,-0.825 1.29382,-2.175 1.66895,-3 0.85738,-1.8856 12.42616,-20.8289 16.79438,-27.5 1.80069,-2.75 5.86732,-9.05 9.03694,-14 6.33083,-9.8869 25.79839,-39.0946 31.32646,-47 8.85705,-12.666 47.91609,-65.5845 49.08353,-66.5 0.35068,-0.275 7.69209,-9.275 16.3142,-20 28.8,-35.8239 45.3299,-54.6969 82.5491,-94.25 10.7391,-11.4125 20.0149,-20.7175 20.6131,-20.6778 0.5981,0.04 2.3834,1.6308 3.9672,3.5357 l 2.8797,3.4636 -11.3797,11.7146 c -49.6361,51.097 -97.8535,108.8943 -142.96414,171.3687 -4.62856,6.4102 -9.09056,12.6498 -9.91556,13.8658 -0.825,1.216 -2.21724,3.1713 -3.09386,4.3451 -2.80888,3.7613 -26.16477,38.7394 -33.80997,50.6343 -8.21638,12.7836 -33.09617,53.746 -33.09617,54.4899 0,0.2612 -1.8,3.4157 -4,7.0101 -2.2,3.5944 -4,6.7612 -4,7.0375 0,0.2762 -1.05663,2.1808 -2.34806,4.2324 -2.30992,3.6695 -6.8845,11.9125 -13.16938,23.7301 -1.75502,3.3 -4.62441,8.6306 -6.37643,11.8459 -4.52339,8.3011 -27.45857,54.1716 -30.07697,60.1541 -1.20362,2.75 -3.91279,8.6 -6.02037,13 -4.56928,9.5393 -10.00879,21.4957 -10.00879,22 0,0.1983 -1.37856,3.4294 -3.06346,7.1802 -4.06421,9.0477 -4.47442,9.9832 -6.93654,15.8198 -3.3027,7.8292 -3.58647,8.5184 -7,17 -3.86415,9.6012 -4.30843,10.6692 -6.9454,16.6951 -1.13003,2.5824 -2.0546,5.3049 -2.0546,6.05 0,0.7452 -0.38127,1.7824 -0.84727,2.3049 -0.46599,0.5225 -3.65845,8.6 -7.09435,17.95 -3.43589,9.35 -6.65462,17.7814 -7.15273,18.7364 -0.49811,0.9551 -0.90565,2.2371 -0.90565,2.8489 0,0.6118 -0.63057,2.5304 -1.40128,4.2636 -0.7707,1.7331 -2.82473,7.4261 -4.5645,12.6511 -1.73978,5.225 -3.52699,10.1898 -3.97157,11.0328 -0.44459,0.8431 -1.14252,3.0931 -1.55097,5 -0.40844,1.907 -1.0887,3.9172 -1.51168,4.4672 -0.42298,0.55 -1.09798,2.575 -1.5,4.5 -0.40202,1.925 -1.07702,3.95 -1.5,4.5 -0.42298,0.55 -1.10324,2.5602 -1.51168,4.4672 -0.40845,1.9069 -1.08763,4.1569 -1.5093,5 -0.6935,1.3865 -4.45398,13.5584 -8.66071,28.0328 -0.87916,3.025 -1.97739,6.4 -2.44051,7.5 -0.46312,1.1 -1.27991,3.8 -1.81507,6 -1.2856,5.2849 -3.17776,12.3497 -7.3653,27.5 -1.90025,6.875 -3.71894,13.625 -4.04152,15 -0.32259,1.375 -1.31728,5.425 -2.21043,9 -3.84548,15.3923 -4.68021,18.822 -5.96301,24.5 -0.74555,3.3 -2.04743,8.925 -2.89307,12.5 -1.66829,7.0528 -5.99567,27.2905 -8.23238,38.5 -1.30888,6.5596 -2.38075,12.3747 -5.89844,32 -1.73301,9.6685 -4.20736,24.8172 -5.39015,33 -0.477,3.3 -1.32604,8.925 -1.88675,12.5 -2.81628,17.956 -4.2284,29.1142 -6.64409,52.5 -0.79539,7.7 -1.70251,15.575 -2.01583,17.5 -0.65652,4.0336 -1.98778,21.148 -4.08374,52.5 -1.43003,21.3908 -3.22672,73.0016 -3.36808,96.75 l -0.0699,11.75 H 38.45112 33.2883 Z m 274.7323,34.5 c 0.0323,-5.0875 0.46199,-15.325 0.95494,-22.75 0.81045,-12.2071 1.52315,-20.5345 4.96393,-58 0.58087,-6.325 1.48493,-14.425 2.00901,-18 0.52408,-3.575 2.32124,-16.625 3.99368,-29 1.67243,-12.375 3.67556,-25.65 4.45139,-29.5 2.71357,-13.4659 3.55953,-18.0496 4.52176,-24.5 0.53328,-3.575 1.67093,-9.65 2.52809,-13.5 0.85717,-3.85 2.47647,-11.5 3.59845,-17 3.82363,-18.7435 13.6079,-58.3176 19.41153,-78.5131 14.1825,-49.3524 28.73916,-91.4952 46.67166,-135.1187 3.7603,-9.1474 6.8369,-16.8771 6.8369,-17.1769 0,-0.2999 1.5197,-3.8406 3.3772,-7.8683 1.8574,-4.0276 5.1981,-11.598 7.4238,-16.823 9.665,-22.6898 31.3495,-66.2952 47.8889,-96.3001 24.7599,-44.9179 50.835,-86.1647 80.9931,-128.1187 6.7329,-9.3663 33.2438,-44.5444 34.3509,-45.5812 0.2937,-0.275 2.3187,-2.7472 4.5,-5.4938 26.2225,-33.0172 56.9827,-67.5267 93.1435,-104.4966 l 14.1774,-14.4946 2.5726,2.4168 c 1.4149,1.3293 2.5726,2.7748 2.5726,3.2123 0,0.4375 -4.2068,4.9716 -9.3484,10.0757 -72.3546,71.8269 -136.3638,153.2736 -190.8411,242.8304 -5.1689,8.4974 -11.1438,18.5998 -13.2774,22.4498 -2.1337,3.85 -4.7778,8.575 -5.8758,10.5 -4.8332,8.473 -17.0861,30.8982 -19.1237,35 -1.2295,2.475 -6.2901,12.6 -11.2457,22.5 -9.7797,19.5373 -32.2879,68.2039 -32.2879,69.8121 0,0.3457 -1.0548,3.0045 -2.3439,5.9083 -1.2892,2.9038 -2.9344,6.8546 -3.6561,8.7796 -0.7217,1.925 -2.3692,5.8809 -3.6613,8.791 -1.292,2.91 -4.6476,11.46 -7.457,19 -2.8093,7.5399 -5.6943,15.059 -6.411,16.709 -0.7167,1.65 -2.2091,5.7 -3.3165,9 -1.1075,3.3 -3.407,9.7753 -5.1102,14.3897 -1.7032,4.6143 -3.4993,10.0143 -3.9914,12 -0.492,1.9856 -2.019,6.7603 -3.3932,10.6103 -2.2188,6.2164 -7.67707,23.7666 -12.28479,39.5 -0.88591,3.025 -1.99454,6.625 -2.46364,8 -0.46909,1.375 -1.79315,6.325 -2.94235,11 -1.1492,4.675 -2.51507,9.625 -3.03527,11 -0.52019,1.375 -2.04518,7.225 -3.38885,13 -1.34368,5.775 -3.18349,13.425 -4.08847,17 -2.71197,10.7132 -7.67145,34.0618 -12.42602,58.5 -0.53502,2.75 -1.64048,8.375 -2.45656,12.5 -0.81609,4.125 -2.19411,12.45 -3.06229,18.5 -0.86817,6.05 -2.19994,14.6 -2.9595,19 -1.69301,9.8073 -3.33107,22.0764 -4.5394,34 -0.50163,4.95 -1.60984,15.525 -2.4627,23.5 -2.64697,24.7516 -3.36353,33.7213 -4.65337,58.25 l -1.2489,23.75 h -3.82364 -3.82365 l 0.0587,-9.25 z m 317.34344,2 c 0.3151,-3.9875 1.2617,-16.7 2.1036,-28.25 0.8419,-11.55 1.952,-23.475 2.4669,-26.5 0.5148,-3.025 1.1991,-8.425 1.5206,-12 0.3214,-3.575 1.0058,-8.975 1.5207,-12 0.515,-3.025 1.6356,-10.225 2.4903,-16 4.4826,-30.2886 16.0141,-84.1605 22.904,-107 0.7466,-2.475 1.9129,-6.525 2.5918,-9 5.0059,-18.2499 18.1865,-57.6122 26.7883,-80 8.5167,-22.1663 13.242,-33.3758 25.2927,-60 13.5184,-29.8669 45.2089,-88.6375 57.9665,-107.5 1.488,-2.2 7.9014,-11.875 14.2521,-21.5 16.4989,-25.0057 19.4113,-29.09 37.7915,-53 41.6753,-54.2136 90.2647,-105.2328 142.9089,-150.0553 7.425,-6.3218 15.525,-13.0465 18,-14.9436 2.475,-1.8972 4.725,-3.7158 5,-4.0414 3.0755,-3.6409 51.5316,-38.6007 72.299,-52.1619 9.051,-5.9104 46.6107,-28.7978 47.2589,-28.7978 0.265,0 2.3799,-1.1982 4.6996,-2.6626 7.3043,-4.611 23.4273,-13.0458 48.2425,-25.2383 26.0308,-12.7898 27.0631,-13.2759 39.5,-18.5991 4.6126,-1.9743 9.762,-4.1917 11.4433,-4.9275 8.2818,-3.6251 21.5463,-8.8693 35.5567,-14.0578 8.525,-3.157 16.4,-6.1007 17.5,-6.5414 5.9674,-2.3911 17.594,-6.2048 17.8833,-5.866 0.1844,0.216 0.5973,1.5177 0.9174,2.8927 0.5496,2.3606 0.1532,2.6362 -7.1093,4.9425 -12.7355,4.0443 -49.4614,18.3578 -73.1914,28.5255 -21.6844,9.2912 -68.1298,32.3805 -86.5,43.0015 -60.3319,34.8819 -104.8958,66.1493 -153,107.3495 -45.8837,39.2985 -97.045,92.831 -132,138.1179 -2.2,2.8503 -4.771,6.168 -5.7133,7.3727 -0.9423,1.2047 -4.8676,6.4654 -8.723,11.6904 -3.8554,5.225 -7.3752,9.95 -7.822,10.5 -7.9919,9.8398 -40.5994,60.2921 -51.8049,80.1557 -14.5077,25.7175 -28.7684,53.0688 -36.504,70.0129 -1.7153,3.7573 -4.5891,9.9814 -6.3863,13.8314 -5.5647,11.9208 -7.1415,15.5799 -12.497,29 -2.8533,7.15 -5.583,13.9 -6.0659,15 -6.5177,14.8462 -26.9836,74.291 -26.9836,78.3761 0,0.9481 -0.3878,2.1514 -0.8618,2.6739 -0.474,0.5225 -1.398,2.975 -2.0532,5.45 -0.6553,2.475 -1.7952,6.75 -2.5333,9.5 -3.5903,13.3773 -8.4649,32.8215 -10.028,40 -0.958,4.4 -2.1844,9.4827 -2.7251,11.2948 -0.5408,1.8121 -1.3609,5.6371 -1.8225,8.5 -0.4615,2.8629 -1.3281,7.4552 -1.9256,10.2052 -1.9525,8.986 -5.1296,26.8416 -7.4732,42 -3.5533,22.9834 -6.5389,50.5898 -8.6788,80.25 l -1.2445,17.25 h -2.9123 -2.9123 z m 342.9456,-5 c 0.9173,-17.1221 5.6878,-51.4763 9.6857,-69.75 7.3002,-33.3685 13.7657,-56.885 21.9946,-80 2.2517,-6.325 4.7772,-13.4651 5.6123,-15.8668 3.173,-9.1257 14.7782,-36.2082 21.4829,-50.1332 20.4255,-42.422 44.0912,-80.4702 72.1694,-116.0291 22.1086,-27.9989 55.0295,-62.8039 78.853,-83.3661 6.4485,-5.5658 25.3727,-21.1393 27.4814,-22.6156 1.1699,-0.8191 6.5699,-4.8762 12,-9.0158 5.4302,-4.1397 10.998,-8.2964 12.373,-9.2371 41.2522,-28.2226 63.2572,-40.4672 114.7949,-63.877 3.4622,-1.5726 6.5392,-2.8593 6.8379,-2.8593 0.2986,0 5.6085,-2.0035 11.7997,-4.4522 13.668,-5.4058 29.6314,-10.9911 39.0675,-13.6691 3.85,-1.0926 7.9,-2.3911 9,-2.8855 2.2598,-1.0157 7.4235,-2.5036 15.5,-4.4663 3.025,-0.7351 8.2,-2.0862 11.5,-3.0023 3.3,-0.9162 7.35,-1.8889 9,-2.1616 4.3045,-0.7114 15.4002,-3.2244 19.5,-4.4164 5.315,-1.5453 34.2494,-5.841 55,-8.1656 16.165,-1.8109 24.5585,-2.0724 66.5,-2.0724 41.7593,0 50.4053,0.2671 66.5,2.0549 20.2022,2.244 49.4521,6.5877 55,8.1676 1.925,0.5482 7.1,1.725 11.5,2.6151 4.4,0.8901 10.7,2.3154 14,3.1673 7.0867,1.8295 15.8025,4.119 20,5.2536 10.7877,2.9162 39.8046,12.2897 45,14.5367 1.65,0.7136 5.25,2.0274 8,2.9196 2.75,0.8922 5.9,2.0301 7,2.5288 1.1,0.4987 8.6545,3.6885 16.7878,7.0886 8.1333,3.4001 21.8583,9.666 30.5,13.9242 13.7939,6.7968 19.3684,9.7543 37.7122,20.0072 16.7672,9.3718 41.4094,25.7007 62.234,41.2388 7.5331,5.6207 14.442,10.9102 15.3532,11.7543 0.9111,0.8441 3.6008,3.1097 5.9769,5.0347 9.6089,7.7844 18.9359,16.1918 18.9359,17.069 0,2.0347 -2.3991,0.6571 -9.292,-5.3358 -25.0644,-21.7914 -57.2924,-45.1254 -85.208,-61.6929 -4.95,-2.9378 -11.5719,-6.8666 -14.7154,-8.7308 -6.7508,-4.0034 -37.2779,-19.4911 -47.2846,-23.9895 -24.9975,-11.2374 -57.4306,-23.4753 -78,-29.4316 -16.7156,-4.8403 -21.2322,-6.0888 -25,-6.9108 -2.2,-0.48 -6.7,-1.5973 -10,-2.483 -11.9726,-3.2133 -29.3565,-6.6447 -46,-9.08 -9.35,-1.3681 -19.25,-2.9351 -22,-3.4822 -25.2631,-5.0258 -128.5553,-5.0142 -154,0.017 -2.75,0.5438 -12.65,2.1197 -22,3.502 -19.0894,2.8222 -44.2317,7.9327 -51.5,10.4681 -1.375,0.4797 -6.775,1.8738 -12,3.0981 -5.225,1.2243 -9.9275,2.6211 -10.45,3.1041 -0.5225,0.4829 -1.7252,0.878 -2.6726,0.878 -3.0763,0 -41.2191,12.9651 -51.4367,17.4838 -3.1293,1.3839 -6.0522,2.5162 -6.4954,2.5162 -0.4432,0 -3.7224,1.35 -7.2873,3 -3.5648,1.65 -6.7133,3 -6.9967,3 -1.4883,0 -41.8564,19.735 -51.1613,25.0115 -8.7597,4.9674 -16.1722,9.2364 -19.5,11.2305 -16.0279,9.6042 -41.5219,26.7994 -52.0004,35.0733 -0.8252,0.6516 -2.6252,1.9104 -4,2.7974 -1.3748,0.887 -5.7329,4.262 -9.6847,7.5 -3.9518,3.238 -8.8939,7.2373 -10.9825,8.8873 -19.9748,15.7801 -61.7276,57.396 -80.8356,80.5705 -10.5093,12.746 -27.0564,34.3896 -32.8206,42.9295 -8.3177,12.323 -16.9699,25.6278 -20.1596,31 -2.1226,3.575 -4.8577,8.075 -6.078,10 -3.7542,5.9222 -12.2443,21.7933 -19.7928,37 -6.8458,13.7912 -8.7879,17.9777 -13.6848,29.5 -1.1687,2.75 -2.7228,6.35 -3.4535,8 -4.5494,10.2725 -11.8448,30.3531 -18.1654,50 -6.8667,21.3445 -8.0527,25.382 -9.8402,33.5 -0.9082,4.125 -2.0033,8.1782 -2.4334,9.0071 -0.4301,0.8289 -1.7857,7.1289 -3.0124,14 -1.2266,6.8711 -2.6043,13.3929 -3.0614,14.4929 -0.4571,1.1 -1.5575,7.175 -2.4453,13.5 -0.8879,6.325 -2.024,13.5606 -2.5248,16.0791 -0.5008,2.5186 -1.9384,14.1061 -3.1947,25.75 -2.5208,23.3634 -4.532,28.5158 -3.4822,8.9209 z m 274.975,0.5 c 0.5478,-14.618 2.3295,-33.6121 3.588,-38.25 0.5223,-1.925 1.6368,-7.775 2.4766,-13 2.3946,-14.8988 6.1049,-30.6109 8.6194,-36.5 0.4697,-1.1 1.3809,-3.8 2.025,-6 3.615,-12.3472 13.7399,-37.5748 19.8665,-49.5 10.1907,-19.8356 24.8868,-43.3297 35.0295,-56 10.1237,-12.6466 11.6698,-14.4593 21.2599,-24.9264 9.1899,-10.0303 34.0999,-33.515 37.654,-35.4996 0.9121,-0.5093 4.5834,-3.2521 8.1584,-6.0952 6.1005,-4.8514 24.8144,-17.5391 29.7115,-20.144 5.4579,-2.903 8.9013,-4.8993 10.2885,-5.9646 1.5772,-1.2113 15.0308,-8.0568 21,-10.6853 1.925,-0.8476 6.9974,-3.1485 11.2719,-5.113 4.2746,-1.9646 8.2182,-3.5719 8.7636,-3.5719 0.5454,0 1.773,-0.4277 2.7281,-0.9503 0.955,-0.5227 6.0114,-2.3451 11.2364,-4.0497 5.225,-1.7046 10.1898,-3.4697 11.0328,-3.9225 0.8431,-0.4528 3.0931,-1.1316 5,-1.5086 1.907,-0.377 4.3672,-1.0884 5.4672,-1.581 4.1387,-1.8534 33.8971,-7.5927 47,-9.0647 4.95,-0.556 11.2229,-1.5047 13.9399,-2.1082 6.5033,-1.4444 55.6882,-1.4267 62.1762,0.022 2.6861,0.6 8.7089,1.5242 13.3839,2.0537 12.8667,1.4576 44.3266,7.4733 47.0328,8.9936 0.8431,0.4736 3.0931,1.1953 5,1.6037 1.907,0.4085 3.9172,1.0887 4.4672,1.5117 0.55,0.423 2.5602,1.1032 4.4672,1.5117 1.9069,0.4084 4.1569,1.1162 5,1.5728 0.843,0.4567 5.718,2.2098 10.8332,3.8959 5.1153,1.6861 10.0653,3.4877 11,4.0037 0.9348,0.5159 4.1746,2.033 7.1996,3.3714 10.3207,4.5662 22.4913,10.5562 29,14.2728 3.575,2.0414 8.1449,4.6476 10.1554,5.7917 2.0105,1.144 7.7922,4.8925 12.8482,8.33 5.056,3.4375 9.4986,6.25 9.8724,6.25 0.3737,0 1.4176,0.7875 2.3196,1.75 0.902,0.9625 4.6751,4 8.3845,6.75 14.3538,10.6412 42.2318,37.7349 55.6183,54.0535 23.4537,28.591 45.6232,66.8956 56.8639,98.25 11.5308,32.1638 17.5507,57.7737 20.0262,85.1965 0.5213,5.775 1.3897,13.0021 1.9297,16.0602 0.54,3.0581 0.9818,9.0206 0.9818,13.25 v 7.6898 h -347.5588 -347.5588 l 0.4403,-11.75 z m 963.8423,4.5 c -0.6148,-3.9875 -1.8514,-15.125 -2.748,-24.75 -0.8965,-9.625 -1.7998,-17.7827 -2.0073,-18.1282 -0.2074,-0.3455 -1.312,-6.4205 -2.4547,-13.5 -3.5501,-21.9961 -9.882,-48.9214 -17.1369,-72.8718 -6.6382,-21.9143 -21.3743,-62.0514 -25.8485,-70.4041 -0.4702,-0.8778 -2.9479,-6.3209 -5.5061,-12.0959 -4.7793,-10.7891 -20.0654,-40.7637 -23.9685,-47 -1.2048,-1.925 -4.1545,-6.875 -6.5548,-11 -7.2413,-12.4442 -24.0649,-37.7232 -33.9414,-51 -15.9133,-21.392 -41.9615,-51.9676 -44.3274,-52.0318 -0.6443,-0.017 -0.3222,-0.6747 0.7157,-1.4605 1.6997,-1.2868 2.0931,-1.1595 3.9601,1.2818 1.1401,1.4908 5.4946,6.5355 9.6766,11.2105 26.3498,29.4561 54.726,69.5927 75.0738,106.1878 27.6512,49.7299 51.2845,110.6249 62.4112,160.8122 1.2804,5.775 2.5842,11.175 2.8975,12 1.4996,3.9496 8.1184,44.8291 9.0669,56 0.3502,4.125 1.0285,9.75 1.5073,12.5 1.4023,8.0534 2.143,21.5 1.1844,21.5 -0.4851,0 -1.385,-3.2625 -1.9999,-7.25 z m 339.4455,6.4288 c -0.2792,-0.4517 -0.7769,-6.1892 -1.1061,-12.75 -1.8253,-36.3791 -8.4374,-88.8621 -15.4872,-122.9288 -0.5691,-2.75 -1.2805,-6.35 -1.5808,-8 -3.0086,-16.5288 -15.7897,-67.4172 -20.8464,-83 -1.2493,-3.85 -3.5388,-11.05 -5.0877,-16 -4.6732,-14.9347 -12.0115,-36.0382 -18.0817,-52 -1.4641,-3.85 -3.2756,-8.6732 -4.0255,-10.7182 -0.7498,-2.045 -4.6933,-11.495 -8.7633,-21 -35.5588,-83.0432 -78.4701,-155.4025 -131.5232,-221.7818 -14.3275,-17.9264 -14.9859,-18.7077 -35.784,-42.4622 -4.3378,-4.9543 -4.3415,-4.9653 -2.3541,-6.9527 1.9874,-1.9875 1.9965,-1.9836 5.7484,2.4622 2.0668,2.449 5.8054,6.7027 8.3081,9.4527 2.5026,2.75 7.9069,9.05 12.0095,14 4.1027,4.95 7.6952,9.225 7.9834,9.5 0.6462,0.6165 12.3303,15.557 21.1153,27 18.8657,24.5738 38.8456,53.9885 56.2264,82.7772 6.4011,10.6025 11.6384,19.4821 11.6384,19.7324 0,0.2504 1.8701,3.5006 4.1559,7.2228 4.494,7.3182 29.3455,56.0307 34.8279,68.2676 1.8481,4.125 4.5787,10.2 6.0679,13.5 1.4893,3.3 5.5074,12.75 8.9291,21 3.4217,8.25 6.6242,15.9 7.1168,17 0.9197,2.0541 2.4318,6.1506 10.8891,29.5 5.2144,14.3962 11.2425,32.3004 13.6358,40.5 0.8027,2.75 1.8598,6.35 2.3491,8 0.4893,1.65 1.624,5.475 2.5215,8.5 3.1111,10.4851 9.993,36.8622 12.1322,46.5 0.8545,3.85 2.2331,9.925 3.0634,13.5 0.8304,3.575 1.8726,8.3 2.316,10.5 0.4434,2.2 1.5486,7.6 2.456,12 0.9074,4.4 2.0654,10.878 2.5734,14.3956 0.5079,3.5175 1.1437,7.1175 1.4128,8 0.4193,1.3748 2.638,16.56 6.5172,44.6044 1.2875,9.3083 6.0641,63.6496 6.0431,68.75 0,1.1867 -0.7929,1.75 -2.4482,1.75 -1.3425,0 -2.6694,-0.3696 -2.9485,-0.8212 z m 315.3983,-4.9288 c 0.039,-25.5506 -6.9354,-98.1369 -13.4285,-139.75 -3.9102,-25.0606 -4.5917,-29.1731 -5.1782,-31.25 -0.5931,-2.1002 -0.3279,-2.25 3.9813,-2.25 3.8655,0 4.6166,0.3085 4.6166,1.896 0,1.0428 0.8669,6.5553 1.9265,12.25 1.0596,5.6947 2.665,16.204 3.5675,23.354 0.9026,7.15 2.056,15.25 2.5632,18 2.9966,16.2476 9.9555,94.7716 9.9478,112.25 l -0.01,11.25 h -4 -4 l 0.01,-5.75 z m 275.9083,-16.4477 c -0.1252,-33.6954 -2.6776,-92.8485 -4.8457,-112.3023 -0.5517,-4.95 -1.534,-14.85 -2.183,-22 -0.649,-7.15 -1.3828,-15.1375 -1.6307,-17.75 l -0.4507,-4.75 h 5.4298 c 3.655,0 5.4435,0.4086 5.4716,1.25 0.095,2.8485 2.4489,26.8352 3.3612,34.25 2.2295,18.1224 4.5802,70.0599 5.069,112 l 0.3614,31 -5.25,0.3023 -5.25,0.3022 -0.083,-22.3022 z m -307.8004,-220.0523 c -0.6937,-2.8875 -1.878,-7.5 -2.6316,-10.25 -0.7537,-2.75 -2.1255,-8.375 -3.0485,-12.5 -1.4353,-6.4139 -5.292,-20.9214 -8.3741,-31.5 -0.4808,-1.65 -1.8497,-6.375 -3.0422,-10.5 -6.2688,-21.6853 -15.7195,-50.8118 -24.4976,-75.5 -2.5423,-7.15 -5.5003,-15.475 -6.5733,-18.5 -1.0731,-3.025 -2.3807,-6.4 -2.9058,-7.5 -0.5251,-1.1 -3.9579,-9.65 -7.6286,-19 -3.6707,-9.35 -7.7407,-19.3337 -9.0445,-22.1859 -1.3038,-2.8523 -2.3705,-5.4131 -2.3705,-5.6908 0,-0.2777 -1.8,-4.3832 -4,-9.1233 -2.2,-4.7401 -4,-8.7854 -4,-8.9894 0,-0.3594 -2.4935,-5.8784 -9.7185,-21.5106 -12.8657,-27.8366 -46.8036,-92.5487 -51.2423,-97.7078 -0.5716,-0.6643 -1.0392,-1.4998 -1.0392,-1.8568 0,-2.6226 -47.812,-77.0361 -63.2465,-98.4354 -6.8302,-9.4697 -35.1133,-46.8413 -40.8676,-54 -26.179,-32.5679 -40.9393,-49.4997 -71.8859,-82.4614 -57.0162,-60.7288 -132.9876,-125.9268 -201,-172.4965 -1.375,-0.9415 -6.7892,-4.6564 -12.0316,-8.2554 -19.3405,-13.2775 -50.5239,-32.6178 -81.9684,-50.8376 -30.1622,-17.4769 -77.4027,-41.0758 -117.5,-58.697 -3.85,-1.6919 -9.25,-4.0845 -12,-5.3168 -7.911,-3.545 -27.8202,-11.551 -47.5,-19.1011 -48.6616,-18.6687 -113.3554,-38.6285 -158.5,-48.9016 -4.95,-1.1264 -14.4823,-3.372 -21.1829,-4.9903 -6.7006,-1.6183 -12.8881,-2.9423 -13.75,-2.9423 -1.1616,0 -1.5671,-1.035 -1.5671,-4 0,-2.5318 0.4588,-4.001 1.25,-4.0028 3.0859,-0.01 51.6971,11.4697 74.25,17.5297 36.4019,9.7812 78.612,23.3834 116,37.3809 4.4,1.6473 11.15,4.1629 15,5.5902 3.85,1.4274 10.6,4.0945 15,5.9269 4.4,1.8325 12.05,4.9986 17,7.0358 4.95,2.0372 11.8327,5.017 15.2949,6.6217 3.4622,1.6047 6.4864,2.9176 6.7204,2.9176 1.2516,0 39.6619,18.0789 59.9309,28.2081 26.4485,13.2174 61.2283,32.5502 91.0538,50.6132 15.1458,9.1727 58.6533,37.7561 70,45.9883 3.85,2.7933 8.7784,6.3413 10.952,7.8845 8.8564,6.2878 37.5794,28.0449 45.1622,34.2094 4.4629,3.6281 9.8352,7.9465 11.9385,9.5965 26.0444,20.4311 64.0184,54.9019 97.4473,88.4577 45.5612,45.7342 83.19,88.5272 115.2282,131.0423 3.1085,4.125 8.2663,10.9615 11.4618,15.1923 28.9164,38.2845 69.2081,101.3456 92.8418,145.3077 1.1826,2.2 3.9856,7.402 6.2288,11.56 10.1106,18.7411 32.0878,63.7436 40.7484,83.44 0.7256,1.65 3.1578,7.1631 5.4051,12.2514 2.2472,5.0882 4.0859,9.5004 4.0859,9.8048 0,0.4797 1.8817,4.9702 5.0049,11.9438 5.8164,12.9867 20.7681,53.1721 29.3935,79 3.6735,11 7.1117,20.7814 7.6404,21.7364 0.5286,0.9551 0.9612,2.4004 0.9612,3.2119 0,0.8115 1.1457,4.9802 2.5459,9.2636 1.4003,4.2835 3.6178,11.6131 4.9277,16.2881 1.31,4.675 3.1128,10.975 4.0064,14 2.173,7.3568 7.1436,26.4939 9.6101,37 1.0976,4.675 2.6513,11.0045 3.4527,14.0656 2.2036,8.4165 2.0672,8.9344 -2.3538,8.9344 -3.7704,0 -3.8243,-0.056 -5.0723,-5.25 z m 290.8103,3.5 c -0.04,-0.9625 -0.4514,-4 -0.9138,-6.75 -0.4624,-2.75 -1.5466,-9.275 -2.4094,-14.5 -0.8628,-5.225 -2.2805,-13.55 -3.1505,-18.5 -0.8699,-4.95 -2.0053,-11.7 -2.523,-15 -0.5178,-3.3 -1.2013,-6.675 -1.519,-7.5 -0.3177,-0.825 -0.9566,-3.525 -1.4197,-6 -2.2781,-12.1738 -5.5397,-27.7618 -8.4741,-40.5 -0.7602,-3.3 -2.0629,-9.15 -2.8948,-13 -1.7265,-7.9901 -9.8194,-39.5992 -14.0816,-55 -0.7611,-2.75 -2.0494,-7.475 -2.863,-10.5 -0.8136,-3.025 -2.2174,-7.975 -3.1196,-11 -0.9023,-3.025 -2.0408,-6.85 -2.5301,-8.5 -2.6137,-8.8137 -6.4717,-21.3776 -7.2162,-23.5 -0.2894,-0.825 -4.0428,-12.3 -8.3409,-25.5 -4.2981,-13.2 -8.1875,-24.4275 -8.643,-24.95 -0.4556,-0.5225 -0.8283,-1.5795 -0.8283,-2.3489 0,-0.7693 -0.6202,-2.8168 -1.3782,-4.55 -0.758,-1.7331 -2.0677,-5.1761 -2.9105,-7.6511 -3.9631,-11.6384 -11.1205,-30.5981 -11.8726,-31.45 -0.4613,-0.5225 -0.8387,-1.5795 -0.8387,-2.3489 0,-0.7693 -0.6283,-2.8168 -1.3961,-4.55 -0.7679,-1.7331 -3.5044,-8.3261 -6.0812,-14.6511 -2.5769,-6.325 -5.2561,-12.85 -5.9539,-14.5 -0.6978,-1.65 -1.8543,-4.575 -2.57,-6.5 -0.7157,-1.925 -2.5832,-6.3439 -4.15,-9.8198 -1.5668,-3.4758 -2.8488,-6.4819 -2.8488,-6.6802 0,-0.1983 -1.3864,-3.4294 -3.081,-7.1802 -1.6945,-3.7509 -3.685,-8.1698 -4.4232,-9.8198 -1.5597,-3.4859 -7.7076,-16.971 -10.7138,-23.5 -4.043,-8.7809 -28.8357,-58.624 -33.0781,-66.5 -2.37,-4.4 -6.6916,-12.4655 -9.6035,-17.9234 -2.9118,-5.4579 -6.3757,-11.6365 -7.6973,-13.7302 -1.3217,-2.0936 -2.4031,-4.0327 -2.4031,-4.3089 0,-0.2763 -1.7167,-3.3227 -3.8149,-6.7699 -2.0982,-3.4472 -4.0765,-6.9704 -4.3963,-7.8293 -0.468,-1.2568 -7.7172,-13.4456 -23.753,-39.9383 -13.6089,-22.4833 -39.4269,-61.2707 -55.5801,-83.5 -3.9966,-5.5 -9.2216,-12.7742 -11.6111,-16.165 -4.2506,-6.0315 -27.6555,-36.8779 -30.9838,-40.835 -0.9253,-1.1 -5.4092,-6.725 -9.9643,-12.5 -14.4746,-18.3511 -45.9221,-55.2321 -61.3583,-71.9598 -36.6061,-39.669 -77.9933,-80.8915 -112.0723,-111.6263 -166.8902,-150.513 -364.2693,-262.1329 -582.4659,-329.3904 -7.425,-2.2887 -15.525,-4.7814 -18,-5.5394 -10.3314,-3.1641 -45.826,-12.6203 -63.5,-16.9173 -32.5513,-7.9139 -39.8823,-9.6132 -54.5,-12.6322 -20.4409,-4.2216 -24.6524,-5.0335 -39,-7.5187 -7.975,-1.3813 -15.9625,-2.7738 -17.75,-3.0945 -3.2002,-0.5741 -3.25,-0.6671 -3.25,-6.0607 0,-5.1706 0.1261,-5.4478 2.25,-4.948 1.2375,0.2912 7.65,1.5028 14.25,2.6924 86.2458,15.5448 164.2309,36.198 246.5,65.2817 43.0682,15.2254 97.4663,37.1948 131,52.9062 5.225,2.448 13.7733,6.4435 18.9962,8.879 49.3315,23.003 117.8823,60.7658 167.1201,92.0621 45.258,28.7667 113.5782,78.0974 146.3837,105.6965 1.1,0.9255 7.625,6.3789 14.5,12.1188 39.1053,32.6485 58.6191,50.6339 102.5598,94.5261 44.4374,44.3885 70.4255,72.7756 102.9402,112.4427 1.1,1.3419 3.3749,4.0468 5.0553,6.0109 5.0532,5.9061 25.4501,31.8841 33.4249,42.5709 4.1043,5.5 9.2753,12.2891 11.4911,15.0868 2.2158,2.7978 5.8287,7.6678 8.0287,10.8223 2.2,3.1545 6.4965,9.1905 9.5477,13.4132 27.2715,37.7425 63.2151,94.4424 88.1878,139.1138 1.0958,1.9601 3.0142,5.3639 4.2632,7.5639 1.2489,2.2 4.1832,7.6 6.5207,12 2.3374,4.4 6.0489,11.375 8.2477,15.5 10.6799,20.0353 33.0206,65.7861 41.2624,84.5 0.7267,1.65 2.4786,5.5983 3.8932,8.7739 1.4147,3.1757 3.6994,8.4524 5.0773,11.7261 1.3779,3.2737 3.6626,8.5504 5.0773,11.7261 2.3257,5.2211 3.9484,8.9651 6.4031,14.7739 0.4649,1.1 2.946,7.175 5.5136,13.5 2.5677,6.325 5.3069,12.918 6.0872,14.6511 0.7804,1.7332 1.4188,3.8441 1.4188,4.691 0,0.8469 0.45,1.818 1,2.1579 0.55,0.3399 1,1.2912 1,2.1139 0,0.8227 0.8383,3.3836 1.8628,5.691 1.8899,4.256 4.3914,10.9571 10.1519,27.1951 1.756,4.95 3.573,9.9 4.0376,11 0.4647,1.1 4.2846,12.575 8.4887,25.5 4.2041,12.925 7.995,24.1898 8.4242,25.0328 0.4293,0.8431 1.0889,3.0931 1.4659,5 0.377,1.907 1.0461,4.3672 1.4871,5.4672 0.4409,1.1 1.5871,4.7 2.5472,8 0.96,3.3 2.3163,7.8 3.014,10 0.6976,2.2 2.0508,6.925 3.0071,10.5 0.9563,3.575 2.1272,7.625 2.6022,9 0.475,1.375 1.3041,4.3 1.8426,6.5 0.5384,2.2 1.7068,6.7 2.5964,10 0.8896,3.3 2.2119,8.475 2.9385,11.5 0.7266,3.025 2.8765,11.575 4.7776,19 4.5006,17.5778 6.7562,27.3955 6.7562,29.4067 0,0.8912 0.4293,2.4018 0.9541,3.3569 0.5247,0.955 1.4422,4.4364 2.0388,7.7364 1.0515,5.816 2.1131,11.2594 5.4608,28 6.7229,33.6197 12.7723,70.9406 11.6766,72.0364 -0.255,0.255 -2.6386,0.4636 -5.297,0.4636 -3.9087,0 -4.8473,-0.3348 -4.9063,-1.75 z m -866.4597,-404.3296 c -19.9173,-20.4075 -76.069,-67.8531 -99.8993,-84.4104 -2.3826,-1.6555 -7.9832,-5.6063 -12.4457,-8.7794 -20.0677,-14.2699 -26.2287,-18.2798 -64.1223,-41.7342 -9.2377,-5.7177 -38.0598,-21.3799 -56.0905,-30.48 -31.4993,-15.8979 -57.6941,-27.4046 -97.9095,-43.0091 -12.429,-4.8227 -44.6198,-15.6159 -62.5,-20.9554 -4.95,-1.4782 -11.025,-3.3016 -13.5,-4.0519 -9.1581,-2.7766 -59.8858,-14.867 -73,-17.3988 -65.6142,-12.6674 -117.8918,-17.6012 -186.5,-17.6012 -45.9454,0 -93.701,2.8645 -125,7.4977 -3.85,0.5699 -10.375,1.5136 -14.5,2.0972 -4.125,0.5835 -11.1,1.675 -15.5,2.4256 -4.4,0.7506 -12.275,2.0919 -17.5,2.9807 -5.225,0.8887 -11.3,2.013 -13.5,2.4982 -2.2,0.4853 -7.6,1.6346 -12,2.5541 -4.4,0.9195 -17,3.8318 -28,6.4717 -11,2.64 -20.0759,4.7258 -20.1687,4.6353 -0.093,-0.09 -0.4557,-1.3079 -0.8064,-2.7052 -0.6125,-2.4404 -0.3498,-2.6121 6.6687,-4.3569 4.0185,-0.999 8.6564,-2.2165 10.3064,-2.7055 8.4212,-2.4959 50.6751,-11.3046 61.8142,-12.8865 3.7477,-0.5322 7.1529,-1.177 7.5669,-1.4329 0.414,-0.2559 4.5476,-0.9881 9.1858,-1.6272 4.6382,-0.6392 12.7081,-1.7867 17.9331,-2.5502 5.225,-0.7635 14,-1.8313 19.5,-2.3728 5.5,-0.5415 13.825,-1.4448 18.5,-2.0073 50.4041,-6.0641 142.8709,-6.0467 191.5,0.036 4.4,0.5504 12.5,1.4327 18,1.9607 5.5,0.528 14.5,1.62 20,2.4267 5.5,0.8066 13.3563,1.9372 17.4584,2.5124 4.1021,0.5752 8.1521,1.2614 9,1.525 0.8479,0.2636 4.4666,0.938 8.0416,1.4988 21.7038,3.4041 60.4281,12.1597 87,19.6708 3.025,0.855 7.75,2.1386 10.5,2.8522 11.6549,3.0246 44.0304,13.4294 50.1511,16.1176 1.7332,0.7611 3.5236,1.3839 3.9788,1.3839 1.6092,0 45.5415,16.805 54.8701,20.989 2.3503,1.0541 9.259,4.0825 22.7656,9.979 10.959,4.7844 50.9811,24.593 63.2344,31.2974 75.698,41.4178 147.1545,93.5787 204,148.9133 l 10,9.7342 -2.0327,2.0485 -2.0327,2.0485 -4.9673,-5.0895 z M 773.1064,2329.4386 c -1.5657,-1.6342 -2.6545,-3.1102 -2.4196,-3.2799 0.2349,-0.1698 2.8952,-2.312 5.9117,-4.7605 3.0165,-2.4484 6.1665,-4.9875 7,-5.6423 0.8335,-0.6548 5.1154,-4.0431 9.5154,-7.5295 34.4211,-27.2742 67.1102,-50.5689 109.5,-78.0312 17.3518,-11.2414 56.3464,-34.0206 79,-46.1488 39.0527,-20.9079 93.4915,-46.4908 121.713,-57.1977 3.4171,-1.2964 8.1421,-3.2483 10.5,-4.3376 2.3578,-1.0892 7.437,-3.1474 11.287,-4.5737 49.3987,-18.3004 83.6202,-29.6731 123.6897,-41.1053 1.2672,-0.3616 1.9533,0.4675 2.7444,3.3162 1.441,5.1892 1.5735,4.9552 -3.1841,5.6219 -13.5138,1.8935 -91.7654,28.1568 -128.75,43.2118 -6.325,2.5747 -13.636,5.5301 -16.2467,6.5675 -4.8898,1.9432 -18.4726,7.7674 -34.2533,14.6876 -34.1539,14.9773 -80.9952,38.7053 -112.2085,56.8404 -5.3853,3.1289 -12.2665,7.1204 -15.2915,8.87 -46.4639,26.8742 -100.899,64.5159 -148,102.3416 -8.525,6.8463 -15.9862,12.8242 -16.5804,13.2843 -0.6597,0.5108 -2.1889,-0.3205 -3.9271,-2.1348 z M 557.8701,2098.6339 c -2.5769,-2.9294 -2.9695,-3.893 -1.91,-4.6874 1.2343,-0.9254 9.4352,-8.0296 19.1149,-16.5588 56.0703,-49.4053 139.8548,-110.3194 208.9307,-151.8995 54.7718,-32.9697 121.1668,-67.3687 178.68,-92.5732 90.5113,-39.6655 186.8576,-71.7551 277.4282,-92.4017 7.7,-1.7553 16.7,-3.8149 20,-4.577 18.6246,-4.3008 65.9961,-13.1535 88,-16.4453 7.7,-1.1519 16.475,-2.5155 19.5,-3.0302 6.1832,-1.0521 23.0974,-3.2166 42.5,-5.4387 11.6843,-1.3382 20.3293,-2.1793 58,-5.6436 39.0804,-3.5938 93.9432,-5.2714 148,-4.5255 24.2,0.3339 49.85,1.0508 57,1.5931 7.15,0.5423 19.3,1.4358 27,1.9857 7.7,0.5499 19.4,1.4501 26,2.0005 6.6,0.5505 13.6866,1.1163 15.748,1.2575 l 3.748,0.2567 v 5.6288 5.6287 l -4.25,-0.7897 c -2.3375,-0.4344 -14.15,-1.5286 -26.25,-2.4317 -12.1,-0.9031 -27.175,-2.1141 -33.5,-2.6912 -17.4221,-1.5895 -131.3685,-2.2609 -158,-0.9309 -28.1227,1.4045 -48.1723,2.7145 -63,4.1165 -39.865,3.7693 -64.5951,6.4134 -74.5,7.9655 -3.3,0.5172 -8.475,1.2054 -11.5,1.5294 -3.025,0.3241 -7.75,1.005 -10.5,1.5131 -2.75,0.5082 -11.075,1.838 -18.5,2.9551 -7.425,1.1171 -15.525,2.4452 -18,2.9513 -2.475,0.5062 -8.775,1.6628 -14,2.5704 -35.422,6.153 -102.757,21.4585 -131.5,29.8905 -4.4,1.2908 -13.175,3.8032 -19.5,5.5831 -20.0059,5.6297 -65.3846,20.2434 -88,28.3392 -165.3754,59.201 -311.4778,140.0611 -445.5,246.5612 -18.7755,14.9199 -50.6628,41.7251 -60,50.4375 -3.3,3.0792 -6.45,5.5871 -7,5.5733 -0.55,-0.014 -2.4597,-1.6846 -4.2438,-3.7127 z m 750.7438,-32.3921 v -4.3394 l 8.25,-1.7637 c 26.9822,-5.7683 51.1072,-10.3067 70.2059,-13.2071 8.8243,-1.3401 20.5441,-3.1405 26.0441,-4.001 11.2382,-1.7582 49.3055,-5.8091 75,-7.9811 55.7375,-4.7114 145.8995,-4.7155 203,-0.01 18.869,1.5553 46.2307,4.2635 51.25,5.0728 3.0482,0.4915 3.25,0.7766 3.25,4.5923 v 4.0682 l -4.25,-0.6168 c -9.7692,-1.4177 -33.0516,-3.6575 -60.25,-5.7962 -25.899,-2.0365 -35.6831,-2.2821 -91.5,-2.2972 -43.1974,-0.012 -67.287,0.3886 -78,1.296 -8.525,0.7222 -23.825,1.9712 -34,2.7756 -51.3548,4.0602 -138.8483,17.6781 -167.25,26.0316 -1.4769,0.4343 -1.75,-0.1626 -1.75,-3.8248 z"
       id="path170" />
  </g>
</svg>
